<?xml version="1.0" encoding="UTF-8" standalone="no"?>
<svg
   xmlns:dc="http://purl.org/dc/elements/1.1/"
   xmlns:cc="http://creativecommons.org/ns#"
   xmlns:rdf="http://www.w3.org/1999/02/22-rdf-syntax-ns#"
   xmlns:svg="http://www.w3.org/2000/svg"
   xmlns="http://www.w3.org/2000/svg"
   xmlns:sodipodi="http://sodipodi.sourceforge.net/DTD/sodipodi-0.dtd"
   xmlns:inkscape="http://www.inkscape.org/namespaces/inkscape"
   width="10.706"
   height="17.412"
   viewBox="0 0 10.706 17.412"
   version="1.1"
   id="svg1189"
   sodipodi:docname="calendar-pending.svg"
   inkscape:version="0.92.5 (2060ec1f9f, 2020-04-08)">
  <metadata
     id="metadata1195">
    <rdf:RDF>
      <cc:Work
         rdf:about="">
        <dc:format>image/svg+xml</dc:format>
        <dc:type
           rdf:resource="http://purl.org/dc/dcmitype/StillImage" />
      </cc:Work>
    </rdf:RDF>
  </metadata>
  <defs
     id="defs1193" />
  <sodipodi:namedview
     pagecolor="#ffffff"
     bordercolor="#666666"
     borderopacity="1"
     objecttolerance="10"
     gridtolerance="10"
     guidetolerance="10"
     inkscape:pageopacity="0"
     inkscape:pageshadow="2"
     inkscape:window-width="3440"
     inkscape:window-height="1440"
     id="namedview1191"
     showgrid="false"
     inkscape:zoom="8"
     inkscape:cx="-35.581959"
     inkscape:cy="-18.634191"
     inkscape:window-x="0"
     inkscape:window-y="0"
     inkscape:window-maximized="1"
     inkscape:current-layer="svg1189" />
  <path
     inkscape:connector-curvature="0"
     d="M 7.4663113,7.9021621 C 6.8395073,7.555772 6.1731159,7.2918549 5.5133223,7.0180383 5.1306419,6.859688 4.7644566,6.6749473 4.4411575,6.4176273 3.804457,5.9095859 3.9265187,5.0848438 4.6720853,4.7582466 4.8832194,4.6658826 5.1042502,4.6361831 5.3285801,4.6229943 6.1929096,4.5768123 7.0143527,4.7351626 7.7962082,5.1112426 8.1854865,5.2992826 8.3141464,5.2399075 8.446105,4.8341267 8.5846623,4.4052618 8.7001256,3.9697998 8.8287853,3.5376328 8.9145591,3.2473239 8.8089922,3.055986 8.5351772,2.9339239 8.033734,2.7128922 7.5190948,2.5545418 6.978064,2.468768 6.272085,2.3599074 6.272085,2.3565997 6.2687859,1.6473252 6.2654922,0.64773763 6.2654922,0.64773763 5.2626005,0.64773763 c -0.1451545,0 -0.290309,-0.003237 -0.4354634,0 -0.4684534,0.0132311 -0.5476286,0.0956718 -0.5608245,0.56742207 -0.0066,0.2111352 0,0.422269 -0.00329,0.6367007 -0.00329,0.6268041 -0.0066,0.6169076 -0.6070097,0.83464 C 2.204463,3.2143349 1.307143,4.2040246 1.211474,5.7875309 1.1256974,7.1895916 1.8580713,8.1363948 3.0094106,8.8258783 3.7186893,9.2514468 4.5038434,9.5021685 5.2560082,9.8353626 5.5496164,9.9640276 5.8300286,10.112479 6.0741524,10.317012 6.7966263,10.914127 6.6646676,11.907114 5.8069358,12.283197 5.3483792,12.484434 4.863431,12.533919 4.365287,12.47124 3.5966272,12.375568 2.8609568,12.174332 2.1681748,11.814745 1.7624009,11.60361 1.6436382,11.659694 1.5050809,12.098455 c -0.1187557,0.379382 -0.2243297,0.762062 -0.3298966,1.144742 -0.1418551,0.51464 -0.08907,0.636702 0.4024745,0.877527 0.6268042,0.303504 1.2964939,0.458555 1.9793808,0.567421 0.534433,0.08578 0.5509278,0.10886 0.5575258,0.663092 0.00329,0.250722 0.00329,0.504742 0.0066,0.755464 0.00329,0.316703 0.1550516,0.501444 0.4816492,0.508041 0.3694845,0.0066 0.7422679,0.0066 1.1117523,-0.0032 0.303505,-0.0066 0.4585565,-0.171545 0.4585565,-0.478351 0,-0.343091 0.016495,-0.689484 0.00329,-1.032576 -0.016494,-0.34969 0.135258,-0.527835 0.4717523,-0.620207 C 7.4234285,14.269238 8.0832222,13.85357 8.5912632,13.233363 10.003221,11.517898 9.4654897,9.0073844 7.466315,7.9022292 Z"
     id="path3792"
     style="fill:#ffffff;stroke-width:0.03298968" />
</svg>
