<svg id="_996398" data-name="996398" xmlns="http://www.w3.org/2000/svg" width="23.84" height="16.762" viewBox="0 0 23.84 16.762">
  <g id="Grupo_3662" data-name="Grupo 3662" transform="translate(0 0)">
    <path id="Trazado_2367" data-name="Trazado 2367" d="M21.046,80.191H9.778a2.787,2.787,0,0,0-2.1.949,2.786,2.786,0,0,0-3.492-.573V76H0V92.762H4.191V89.969H19.649v2.794H23.84V82.984A2.8,2.8,0,0,0,21.046,80.191ZM2.794,91.366H1.4V77.4h1.4Zm1.4-8.381a1.4,1.4,0,1,1,2.794,0v1.4H4.191Zm18.252,8.381h-1.4v-1.4h1.4Zm0-2.794H4.191V85.778H22.443Zm0-4.191H8.381v-1.4a1.4,1.4,0,0,1,1.4-1.4H21.046a1.4,1.4,0,0,1,1.4,1.4Z" transform="translate(0 -76)" fill="#fff"/>
  </g>
</svg>
