<svg
  xmlns="http://www.w3.org/2000/svg"
  width="26.743"
  height="29.129"
  viewBox="0 0 26.743 29.129"
>
  <g id="_1827504" data-name="1827504" transform="translate(0.25 0.25)">
    <path
      id="Trazado_2354"
      data-name="Trazado 2354"
      d="M137.805,421.368a4.479,4.479,0,0,1-4.473-4.473.895.895,0,0,1,1.789,0,2.684,2.684,0,0,0,5.368,0,.895.895,0,0,1,1.789,0A4.479,4.479,0,0,1,137.805,421.368Zm0,0"
      transform="translate(-125.877 -392.739)"
      fill="#ed722e"
      stroke="#ed722e"
      stroke-width="0.5"
    />
    <path
      id="Trazado_2355"
      data-name="Trazado 2355"
      d="M21.77,85.472H2.087A2.088,2.088,0,0,1,.73,81.8a.825.825,0,0,1,.1-.072,8.017,8.017,0,0,0,2.753-6.048V72.35A8.36,8.36,0,0,1,11.929,64a3.593,3.593,0,0,1,.588.036.894.894,0,1,1-.294,1.764,1.877,1.877,0,0,0-.295-.011A6.569,6.569,0,0,0,5.368,72.35v3.328a9.811,9.811,0,0,1-3.463,7.481c-.018.014-.033.028-.053.041a.3.3,0,0,0-.063.185.3.3,0,0,0,.3.3H21.77a.3.3,0,0,0,.3-.3A.285.285,0,0,0,22,83.2c-.018-.013-.033-.026-.051-.041a9.809,9.809,0,0,1-3.463-7.481v-1.3a.895.895,0,0,1,1.789,0v1.3a8.02,8.02,0,0,0,2.757,6.052.868.868,0,0,1,.092.069,2.087,2.087,0,0,1-1.357,3.673Zm0,0"
      transform="translate(0 -60.421)"
      fill="#ed722e"
      stroke="#ed722e"
      stroke-width="0.5"
    />
    <path
      id="Trazado_2356"
      data-name="Trazado 2356"
      d="M261.964,11.929a5.964,5.964,0,1,1,5.964-5.964A5.971,5.971,0,0,1,261.964,11.929Zm0-10.139a4.175,4.175,0,1,0,4.175,4.175A4.18,4.18,0,0,0,261.964,1.789Zm0,0"
      transform="translate(-241.686)"
      fill="#ed722e"
      stroke="#ed722e"
      stroke-width="0.5"
    />
  </g>
</svg>
