<svg
  xmlns="http://www.w3.org/2000/svg"
  width="20.739"
  height="22.58"
  viewBox="0 0 20.739 22.58"
>
  <g id="_1827504" data-name="1827504" transform="translate(0.25 0.25)">
    <path
      id="Trazado_2354"
      data-name="Trazado 2354"
      d="M136.782,420.14a3.454,3.454,0,0,1-3.45-3.45.69.69,0,1,1,1.38,0,2.07,2.07,0,1,0,4.14,0,.69.69,0,1,1,1.38,0A3.454,3.454,0,0,1,136.782,420.14Zm0,0"
      transform="translate(-127.582 -398.06)"
      fill="#fff"
      stroke="#fff"
      stroke-width="0.5"
    />
    <path
      id="Trazado_2355"
      data-name="Trazado 2355"
      d="M16.789,80.56H1.61A1.61,1.61,0,0,1,.563,77.726a.636.636,0,0,1,.074-.055A6.183,6.183,0,0,0,2.76,73.007V70.44A6.447,6.447,0,0,1,9.2,64a2.77,2.77,0,0,1,.454.028.69.69,0,1,1-.226,1.361A1.448,1.448,0,0,0,9.2,65.38a5.066,5.066,0,0,0-5.06,5.06v2.567a7.567,7.567,0,0,1-2.671,5.769c-.014.011-.026.021-.041.031a.228.228,0,0,0-.049.143.233.233,0,0,0,.23.23H16.789a.233.233,0,0,0,.23-.23.22.22,0,0,0-.05-.143l-.04-.031a7.565,7.565,0,0,1-2.671-5.769V72a.69.69,0,1,1,1.38,0v1a6.185,6.185,0,0,0,2.126,4.667.67.67,0,0,1,.071.053,1.61,1.61,0,0,1-1.047,2.833Zm0,0"
      transform="translate(0 -61.24)"
      fill="#fff"
      stroke="#fff"
      stroke-width="0.5"
    />
    <path
      id="Trazado_2356"
      data-name="Trazado 2356"
      d="M260.6,9.2a4.6,4.6,0,1,1,4.6-4.6A4.6,4.6,0,0,1,260.6,9.2Zm0-7.82a3.22,3.22,0,1,0,3.22,3.22A3.223,3.223,0,0,0,260.6,1.38Zm0,0"
      transform="translate(-244.961)"
      fill="#fff"
      stroke="#fff"
      stroke-width="0.5"
    />
  </g>
</svg>
