<svg
  xmlns="http://www.w3.org/2000/svg"
  width="15.199"
  height="18.239"
  viewBox="0 0 15.199 18.239"
>
  <g id="Grupo_3800" data-name="Grupo 3800" transform="translate(2918 18745.26)">
    <g id="_992679" data-name="992679" transform="translate(-2918 -18745.26)">
      <g id="Grupo_3797" data-name="Grupo 3797" transform="translate(0)">
        <g id="Grupo_3796" data-name="Grupo 3796" transform="translate(0)">
          <path
            id="Trazado_2413"
            data-name="Trazado 2413"
            d="M55.586,6.08V5.32a5.32,5.32,0,1,0-10.639,0v.76a2.283,2.283,0,0,0-2.28,2.28v7.6a2.283,2.283,0,0,0,2.28,2.28H55.586a2.283,2.283,0,0,0,2.28-2.28V8.36A2.283,2.283,0,0,0,55.586,6.08Zm-9.12-.76a3.8,3.8,0,0,1,7.6,0v.76h-7.6Zm9.88,10.639a.761.761,0,0,1-.76.76H44.947a.761.761,0,0,1-.76-.76V8.36a.761.761,0,0,1,.76-.76H55.586a.761.761,0,0,1,.76.76Z"
            transform="translate(-42.667)"
            fill="#fff"
          />
        </g>
      </g>
      <g id="Grupo_3799" data-name="Grupo 3799" transform="translate(5.32 8.74)">
        <g id="Grupo_3798" data-name="Grupo 3798" transform="translate(0)">
          <path
            id="Trazado_2414"
            data-name="Trazado 2414"
            d="M194.28,245.333a2.274,2.274,0,0,0-.76,4.42v1.28a.76.76,0,0,0,1.52,0v-1.28a2.274,2.274,0,0,0-.76-4.42Zm0,3.04a.76.76,0,1,1,.76-.76A.761.761,0,0,1,194.28,248.373Z"
            transform="translate(-192 -245.333)"
            fill="#fff"
          />
        </g>
      </g>
    </g>
  </g>
</svg>
