<svg
  xmlns="http://www.w3.org/2000/svg"
  width="23.305"
  height="43.973"
  viewBox="0 0 23.305 43.973"
>
  <g id="Grupo_3638" data-name="Grupo 3638" transform="translate(-708.374 -233.717)">
    <path
      id="Trazado_2298"
      data-name="Trazado 2298"
      d="M731.133,253.8l-9.815-9.16a1.719,1.719,0,0,0-2.33-.013L708.935,253.8a1.717,1.717,0,0,0-.561,1.269V274.9a1.719,1.719,0,0,0,1.719,1.718h19.868a1.718,1.718,0,0,0,1.718-1.718V255.054A1.715,1.715,0,0,0,731.133,253.8Zm-16.721,21.135a4.627,4.627,0,1,1,4.626-4.627A4.627,4.627,0,0,1,714.412,274.934Zm0-11.229a4.627,4.627,0,1,1,4.626-4.627A4.627,4.627,0,0,1,714.412,263.7Zm11.229,11.229a4.627,4.627,0,1,1,4.627-4.627A4.627,4.627,0,0,1,725.642,274.934Z"
      transform="translate(0 1.072)"
      fill="#fff"
    />
    <circle
      id="Elipse_1"
      data-name="Elipse 1"
      cx="4.627"
      cy="4.627"
      r="4.627"
      transform="translate(721.015 233.717)"
      fill="#fff"
    />
  </g>
</svg>
