<svg
  xmlns="http://www.w3.org/2000/svg"
  width="20.041"
  height="19.206"
  viewBox="0 0 20.041 19.206"
>
  <g id="_992668" data-name="992668" transform="translate(0 -10.667)">
    <g id="Grupo_3664" data-name="Grupo 3664" transform="translate(0 24.028)">
      <g id="Grupo_3663" data-name="Grupo 3663">
        <path
          id="Trazado_2370"
          data-name="Trazado 2370"
          d="M19.206,354.088H16.982a2.9,2.9,0,0,0-5.573,0H.835a.835.835,0,0,0,0,1.67H11.409a2.9,2.9,0,0,0,5.573,0h2.224a.835.835,0,0,0,0-1.67Zm-5.01,2.088a1.253,1.253,0,1,1,1.253-1.253A1.254,1.254,0,0,1,14.2,356.175Z"
          transform="translate(0 -352)"
          fill="#fff"
        />
      </g>
    </g>
    <g id="Grupo_3666" data-name="Grupo 3666" transform="translate(0 10.667)">
      <g id="Grupo_3665" data-name="Grupo 3665">
        <path
          id="Trazado_2371"
          data-name="Trazado 2371"
          d="M19.206,12.755H16.982a2.9,2.9,0,0,0-5.573,0H.835a.835.835,0,1,0,0,1.67H11.409a2.9,2.9,0,0,0,5.573,0h2.224a.835.835,0,0,0,0-1.67ZM14.2,14.842a1.253,1.253,0,1,1,1.253-1.253A1.254,1.254,0,0,1,14.2,14.842Z"
          transform="translate(0 -10.667)"
          fill="#fff"
        />
      </g>
    </g>
    <g id="Grupo_3668" data-name="Grupo 3668" transform="translate(0 17.347)">
      <g id="Grupo_3667" data-name="Grupo 3667">
        <path
          id="Trazado_2372"
          data-name="Trazado 2372"
          d="M19.206,183.422H8.632a2.9,2.9,0,0,0-5.573,0H.835a.835.835,0,0,0,0,1.67H3.059a2.9,2.9,0,0,0,5.573,0H19.206a.835.835,0,0,0,0-1.67ZM5.845,185.509A1.253,1.253,0,1,1,7.1,184.257,1.254,1.254,0,0,1,5.845,185.509Z"
          transform="translate(0 -181.334)"
          fill="#fff"
        />
      </g>
    </g>
  </g>
</svg>
