<svg xmlns="http://www.w3.org/2000/svg" width="20.297" height="20.297" viewBox="0 0 20.297 20.297">
  <g id="_1828765" data-name="1828765" transform="translate(0.25 0.25)">
    <path id="Trazado_2360" data-name="Trazado 2360" d="M7.63,6.6H1.443A1.445,1.445,0,0,1,0,5.155V1.443A1.445,1.445,0,0,1,1.443,0H7.63A1.445,1.445,0,0,1,9.074,1.443V5.155A1.445,1.445,0,0,1,7.63,6.6ZM1.443,1.237a.206.206,0,0,0-.206.206V5.155a.206.206,0,0,0,.206.206H7.63a.206.206,0,0,0,.206-.206V1.443a.206.206,0,0,0-.206-.206Zm0,0" fill="#fff" stroke="#fff" stroke-width="0.5"/>
    <path id="Trazado_2361" data-name="Trazado 2361" d="M7.63,224.88H1.443A1.445,1.445,0,0,1,0,223.437v-8.661a1.445,1.445,0,0,1,1.443-1.444H7.63a1.445,1.445,0,0,1,1.444,1.444v8.661A1.445,1.445,0,0,1,7.63,224.88ZM1.443,214.569a.206.206,0,0,0-.206.206v8.661a.206.206,0,0,0,.206.206H7.63a.206.206,0,0,0,.206-.206v-8.661a.206.206,0,0,0-.206-.206Zm0,0" transform="translate(0 -205.083)" fill="#fff" stroke="#fff" stroke-width="0.5"/>
    <path id="Trazado_2362" data-name="Trazado 2362" d="M284.962,347.931h-6.187a1.445,1.445,0,0,1-1.444-1.444v-3.712a1.445,1.445,0,0,1,1.444-1.444h6.187a1.445,1.445,0,0,1,1.443,1.444v3.712A1.445,1.445,0,0,1,284.962,347.931Zm-6.187-5.362a.206.206,0,0,0-.206.206v3.712a.206.206,0,0,0,.206.206h6.187a.206.206,0,0,0,.206-.206v-3.712a.206.206,0,0,0-.206-.206Zm0,0" transform="translate(-266.609 -328.134)" fill="#fff" stroke="#fff" stroke-width="0.5"/>
    <path id="Trazado_2363" data-name="Trazado 2363" d="M284.962,11.548h-6.187a1.445,1.445,0,0,1-1.444-1.444V1.443A1.445,1.445,0,0,1,278.776,0h6.187a1.445,1.445,0,0,1,1.443,1.443V10.1A1.445,1.445,0,0,1,284.962,11.548ZM278.776,1.237a.206.206,0,0,0-.206.206V10.1a.206.206,0,0,0,.206.206h6.187a.206.206,0,0,0,.206-.206V1.443a.206.206,0,0,0-.206-.206Zm0,0" transform="translate(-266.609)" fill="#fff" stroke="#fff" stroke-width="0.5"/>
  </g>
</svg>
