<svg
  xmlns="http://www.w3.org/2000/svg"
  width="17.853"
  height="17.699"
  viewBox="0 0 17.853 17.699"
>
  <g id="_860814" data-name="860814" transform="translate(0.15 0.146)">
    <g id="Grupo_3786" data-name="Grupo 3786" transform="translate(0 1.247)">
      <g id="Grupo_3785" data-name="Grupo 3785">
        <path
          id="Trazado_2403"
          data-name="Trazado 2403"
          d="M14.292,41.594a.621.621,0,0,0-.621.621v6.214a.621.621,0,0,1-.621.621H1.864a.621.621,0,0,1-.621-.621V36a.621.621,0,0,1,.621-.621H9.321a.621.621,0,1,0,0-1.243H1.864A1.864,1.864,0,0,0,0,36V48.429a1.864,1.864,0,0,0,1.864,1.864H13.049a1.864,1.864,0,0,0,1.864-1.864V42.215A.621.621,0,0,0,14.292,41.594Z"
          transform="translate(0 -34.137)"
          fill="#00b5e2"
          stroke="#00b5e2"
          stroke-width="0.3"
        />
      </g>
    </g>
    <g id="Grupo_3788" data-name="Grupo 3788" transform="translate(3.729 0.004)">
      <g id="Grupo_3787" data-name="Grupo 3787" transform="translate(0 0)">
        <path
          id="Trazado_2404"
          data-name="Trazado 2404"
          d="M115.383.7a2.379,2.379,0,0,0-3.364,0l-8.185,8.184a.628.628,0,0,0-.15.243l-1.243,3.728a.621.621,0,0,0,.589.818.631.631,0,0,0,.2-.032l3.728-1.243a.622.622,0,0,0,.243-.15l8.185-8.185A2.379,2.379,0,0,0,115.383.7ZM114.5,3.187l-8.078,8.078-2.414.806.8-2.41L112.9,1.582a1.135,1.135,0,1,1,1.607,1.6Z"
          transform="translate(-102.409 -0.004)"
          fill="#00b5e2"
          stroke="#00b5e2"
          stroke-width="0.3"
        />
      </g>
    </g>
  </g>
</svg>
