<?xml version="1.0" encoding="UTF-8" standalone="no"?>
<svg
   xmlns:dc="http://purl.org/dc/elements/1.1/"
   xmlns:cc="http://creativecommons.org/ns#"
   xmlns:rdf="http://www.w3.org/1999/02/22-rdf-syntax-ns#"
   xmlns:svg="http://www.w3.org/2000/svg"
   xmlns="http://www.w3.org/2000/svg"
   xmlns:sodipodi="http://sodipodi.sourceforge.net/DTD/sodipodi-0.dtd"
   xmlns:inkscape="http://www.inkscape.org/namespaces/inkscape"
   pointer-events="none"
   width="200"
   height="200"
   version="1.1"
   id="svg6"
   sodipodi:docname="edit_partner.svg"
   inkscape:version="0.92.5 (2060ec1f9f, 2020-04-08)">
  <metadata
     id="metadata12">
    <rdf:RDF>
      <cc:Work
         rdf:about="">
        <dc:format>image/svg+xml</dc:format>
        <dc:type
           rdf:resource="http://purl.org/dc/dcmitype/StillImage" />
      </cc:Work>
    </rdf:RDF>
  </metadata>
  <defs
     id="defs10" />
  <sodipodi:namedview
     pagecolor="#ffffff"
     bordercolor="#666666"
     borderopacity="1"
     objecttolerance="10"
     gridtolerance="10"
     guidetolerance="10"
     inkscape:pageopacity="0"
     inkscape:pageshadow="2"
     inkscape:window-width="3440"
     inkscape:window-height="1376"
     id="namedview8"
     showgrid="false"
     inkscape:zoom="0.59"
     inkscape:cx="15.340697"
     inkscape:cy="-115.04929"
     inkscape:window-x="0"
     inkscape:window-y="27"
     inkscape:window-maximized="1"
     inkscape:current-layer="svg6" />
  <rect
     width="200"
     height="200"
     rx="0"
     ry="0"
     style="fill: #8e44ad"
     id="rect2" />
  <text
     text-anchor="middle"
     y="50%"
     x="50%"
     dy="0.35em"
     pointer-events="auto"
     fill="#ffffff"
     font-family="HelveticaNeue-Light,Helvetica Neue Light,Helvetica Neue,Helvetica,Arial,Lucida Grande,sans-serif"
     style="font-weight: 400; font-size: 80px"
     id="text4">D</text>
  <rect
     style="fill:#00b5e2;fill-opacity:1;stroke:none;stroke-width:1.79999995;stroke-miterlimit:4;stroke-dasharray:none;stroke-opacity:1"
     id="rect822"
     width="200"
     height="200"
     x="0"
     y="0"
     ry="0.013231221" />
  <path
     style="fill:#ffffff;stroke-width:0.09295551"
     d="m 63.079715,131.53512 v -11.3174 l 23.70367,-23.70354 23.703665,-23.703529 11.31727,11.317265 11.31726,11.317266 -23.70353,23.703668 -23.703525,23.70367 h -11.31741 -11.3174 z m 63.731005,-52.440093 -11.33037,-11.330648 4.6717,-4.634497 c 2.56943,-2.548973 4.90736,-4.812323 5.1954,-5.029666 1.42521,-1.075393 3.22899,-1.219358 4.91318,-0.392135 0.75453,0.370599 0.8707,0.480687 9.1751,8.694718 8.22357,8.134076 8.41905,8.335662 8.77705,9.050916 0.83376,1.66581 0.6902,3.529522 -0.38076,4.942984 -0.33907,0.447498 -9.48131,9.941038 -9.63546,10.005702 -0.0305,0.0128 -5.15414,-5.075517 -11.38584,-11.307374 z"
     id="path835"
     inkscape:connector-curvature="0" />
</svg>
