<svg
  id="_2311985"
  data-name="2311985"
  xmlns="http://www.w3.org/2000/svg"
  width="22.735"
  height="22.735"
  viewBox="0 0 22.735 22.735"
>
  <path
    id="Trazado_2453"
    data-name="Trazado 2453"
    d="M20.316,23.42A3.319,3.319,0,0,1,17,20.1V15.131a2.131,2.131,0,0,1,4.263,0v4.736a.71.71,0,0,1-1.421,0V15.131a.71.71,0,0,0-1.421,0V20.1a1.895,1.895,0,0,0,3.789,0V13.71a.71.71,0,1,1,1.421,0V20.1A3.319,3.319,0,0,1,20.316,23.42Z"
    transform="translate(-0.896 -0.685)"
    fill="#00b5e2"
  />
  <path
    id="Trazado_2454"
    data-name="Trazado 2454"
    d="M14.029,20.84H2.605A2.607,2.607,0,0,1,0,18.235V2.605A2.607,2.607,0,0,1,2.605,0H14.446a2.607,2.607,0,0,1,2.605,2.605v8.033a.71.71,0,1,1-1.421,0V2.605a1.186,1.186,0,0,0-1.184-1.184H2.605A1.186,1.186,0,0,0,1.421,2.605v15.63a1.186,1.186,0,0,0,1.184,1.184H14.029a.71.71,0,0,1,0,1.421Z"
    fill="#00b5e2"
  />
  <path
    id="Trazado_2455"
    data-name="Trazado 2455"
    d="M13.657,14.921H3.71a.71.71,0,0,1,0-1.421h9.947a.71.71,0,1,1,0,1.421Z"
    transform="translate(-0.158 -0.712)"
    fill="#00b5e2"
  />
  <path
    id="Trazado_2456"
    data-name="Trazado 2456"
    d="M13.657,10.921H3.71a.71.71,0,1,1,0-1.421h9.947a.71.71,0,1,1,0,1.421Z"
    transform="translate(-0.158 -0.501)"
    fill="#00b5e2"
  />
  <path
    id="Trazado_2457"
    data-name="Trazado 2457"
    d="M8.921,6.921H3.71a.71.71,0,1,1,0-1.421h5.21a.71.71,0,1,1,0,1.421Z"
    transform="translate(-0.158 -0.29)"
    fill="#00b5e2"
  />
</svg>
