<svg
  xmlns="http://www.w3.org/2000/svg"
  width="24.5"
  height="24.5"
  viewBox="0 0 24.5 24.5"
>
  <g id="_2311985" data-name="2311985" transform="translate(0.25 0.25)">
    <path
      id="Trazado_2427"
      data-name="Trazado 2427"
      d="M20.5,24A3.5,3.5,0,0,1,17,20.5V15.25a2.25,2.25,0,0,1,4.5,0v5a.75.75,0,0,1-1.5,0v-5a.75.75,0,0,0-1.5,0V20.5a2,2,0,0,0,4,0V13.75a.75.75,0,0,1,1.5,0V20.5A3.5,3.5,0,0,1,20.5,24Z"
      fill="#00b5e2"
      stroke="#00b5e2"
      stroke-width="0.5"
    />
    <path
      id="Trazado_2428"
      data-name="Trazado 2428"
      d="M14.81,22H2.75A2.752,2.752,0,0,1,0,19.25V2.75A2.752,2.752,0,0,1,2.75,0h12.5A2.752,2.752,0,0,1,18,2.75v8.48a.75.75,0,0,1-1.5,0V2.75A1.252,1.252,0,0,0,15.25,1.5H2.75A1.252,1.252,0,0,0,1.5,2.75v16.5A1.252,1.252,0,0,0,2.75,20.5H14.81a.75.75,0,0,1,0,1.5Z"
      fill="#00b5e2"
      stroke="#00b5e2"
      stroke-width="0.5"
    />
    <path
      id="Trazado_2429"
      data-name="Trazado 2429"
      d="M14.25,15H3.75a.75.75,0,0,1,0-1.5h10.5a.75.75,0,0,1,0,1.5Z"
      fill="#00b5e2"
      stroke="#00b5e2"
      stroke-width="0.5"
    />
    <path
      id="Trazado_2430"
      data-name="Trazado 2430"
      d="M14.25,11H3.75a.75.75,0,0,1,0-1.5h10.5a.75.75,0,0,1,0,1.5Z"
      fill="#00b5e2"
      stroke="#00b5e2"
      stroke-width="0.5"
    />
    <path
      id="Trazado_2431"
      data-name="Trazado 2431"
      d="M9.25,7H3.75a.75.75,0,0,1,0-1.5h5.5a.75.75,0,0,1,0,1.5Z"
      fill="#00b5e2"
      stroke="#00b5e2"
      stroke-width="0.5"
    />
  </g>
</svg>
