<?xml version="1.0" encoding="utf-8"?>
<!-- Svg Vector Icons : http://www.onlinewebfonts.com/icon -->
<!DOCTYPE svg PUBLIC "-//W3C//DTD SVG 1.1//EN" "http://www.w3.org/Graphics/SVG/1.1/DTD/svg11.dtd">
<svg version="1.1" xmlns="http://www.w3.org/2000/svg" xmlns:xlink="http://www.w3.org/1999/xlink" x="0px" y="0px" viewBox="0 0 1000 1000" enable-background="new 0 0 1000 1000" xml:space="preserve">
<metadata> Svg Vector Icons : http://www.onlinewebfonts.com/icon </metadata>
<g><g transform="translate(0.000000,511.000000) scale(0.100000,-0.100000)"><path fill="#00b5e2"
    stroke="#00b5e2" d="M1876.5,4242.7c0-3.9,396.3-572,878.5-1263.1c515.4-734,870.7-1257.2,855.1-1261.1c-52.7-9.8-2012.7,345.5-2038.1,370.9c-13.7,13.7-214.7,298.7-447,630.6c-232.3,333.8-437.3,611-454.9,618.8c-48.8,19.5-525.1,99.6-546.6,91.7c-9.8-3.9,66.4-429.5,167.9-942.9l185.5-935.1L771.6,1412c968.3-464.6,2125.9-921.4,2764.3-1093.2c101.5-27.3,1134.2-218.6,2293.8-425.6L7938-481.6l331.9,2c294.8,1.9,353.3,7.8,527.1,52.7c249.9,68.3,452.9,164,554.4,265.5c68.3,68.3,80,91.8,80,164c0,265.5-534.9,693-1063.9,851.2c-74.2,21.5-562.2,115.2-1083.5,206.9c-521.2,89.8-962.4,175.7-982,185.5c-19.5,11.7-804.3,654-1741.4,1425.1L2852.6,4074.8l-452.9,80c-249.9,43-470.5,82-488,85.9C1892.1,4244.7,1876.5,4246.6,1876.5,4242.7z"/><path fill="#00b5e2"
    stroke="#00b5e2" d="M100-3575.8v-449h4900h4900v449v449H5000H100V-3575.8z"/></g></g>
</svg>
