<?xml version="1.0" encoding="utf-8"?>
<!-- Svg Vector Icons : http://www.onlinewebfonts.com/icon -->
<!DOCTYPE svg PUBLIC "-//W3C//DTD SVG 1.1//EN" "http://www.w3.org/Graphics/SVG/1.1/DTD/svg11.dtd">
<svg version="1.1" xmlns="http://www.w3.org/2000/svg" xmlns:xlink="http://www.w3.org/1999/xlink" x="0px" y="0px" viewBox="0 0 1000 1000" enable-background="new 0 0 1000 1000" xml:space="preserve">
<metadata> Svg Vector Icons : http://www.onlinewebfonts.com/icon </metadata>
<g><g transform="translate(0.000000,511.000000) scale(0.100000,-0.100000)"><path fill="#00b5e2"
    stroke="#00b5e2" d="M8795.1,4048.6c-261.6-50.8-372.9-95.7-1286.5-519.3L6591,3101.8l-2225.5,173.7L2140,3449.3l-451-208.9c-249.9-115.2-443.1-214.7-429.5-222.6c11.7-5.9,640.3-236.2,1393.9-511.5c755.5-275.3,1399.7-511.5,1431-525.1c54.7-23.4,21.5-41-890.2-464.6l-948.8-441.2L1531,1335.1c-394.3,144.5-728.2,261.6-741.8,261.6c-41,0-523.2-228.4-523.2-247.9c0-9.8,232.3-240.1,517.3-513.4c285-271.4,591.5-568.1,683.3-657.9l167.9-162l447.1,78.1c1349,240.1,2414.9,511.5,3006.4,767.2C5285,944.6,8676,2525.9,8914.1,2645c214.7,105.4,410,251.8,595.4,447.1c257.7,271.3,411.9,562.2,382.6,720.4c-17.6,87.9-119.1,171.8-261.6,214.7C9482.2,4072,8988.3,4085.7,8795.1,4048.6z"/><path d="M100-3401v-449h4900h4900v449v449H5000H100V-3401z" fill="#00b5e2"
    stroke="#00b5e2"/></g></g>
</svg>
