<svg xmlns="http://www.w3.org/2000/svg" width="21.468" height="22.877" viewBox="0 0 21.468 22.877">
  <g id="_2636568" data-name="2636568" transform="translate(0.25 0.25)">
    <path id="Trazado_2357" data-name="Trazado 2357" d="M26.489,0a10.484,10.484,0,0,0-7.907,17.368v4.342a.656.656,0,0,0,1.119.463l2.241-2.241A10.485,10.485,0,1,0,26.489,0ZM22.127,18.556a.655.655,0,0,0-.775.113l-1.459,1.459v-3.01a.655.655,0,0,0-.172-.442,9.171,9.171,0,1,1,2.407,1.88Z" transform="translate(-16.005)" fill="#e3f9ff" stroke="#fff" stroke-width="0.5"/>
    <path id="Trazado_2358" data-name="Trazado 2358" d="M169.886,105.9a3.938,3.938,0,0,0-3.934,3.934.655.655,0,1,0,1.31,0,2.623,2.623,0,1,1,2.623,2.623.655.655,0,0,0-.655.655v1.964a.655.655,0,1,0,1.31,0v-1.363a3.934,3.934,0,0,0-.655-7.813Z" transform="translate(-159.402 -101.272)" fill="#e3f9ff" stroke="#fff" stroke-width="0.5"/>
    <ellipse id="Elipse_6" data-name="Elipse 6" cx="0.653" cy="0.653" rx="0.653" ry="0.653" transform="translate(9.831 15.77)" fill="#e3f9ff" stroke="#fff" stroke-width="0.5"/>
  </g>
</svg>
