<svg
  xmlns="http://www.w3.org/2000/svg"
  width="20.459"
  height="25.205"
  viewBox="0 0 20.459 25.205"
>
  <g id="_2258613" data-name="2258613" transform="translate(-48.2)">
    <path
      id="Trazado_2368"
      data-name="Trazado 2368"
      d="M68.443,6.544,62.116.216A.738.738,0,0,0,61.593,0H50.916A2.719,2.719,0,0,0,48.2,2.716V22.489A2.719,2.719,0,0,0,50.916,25.2H65.944a2.719,2.719,0,0,0,2.716-2.716V7.066a.738.738,0,0,0-.216-.522ZM62.332,2.521l3.806,3.806H63.571a1.24,1.24,0,0,1-1.239-1.239Zm3.612,21.207H50.916a1.24,1.24,0,0,1-1.239-1.239V2.716a1.24,1.24,0,0,1,1.239-1.239h9.939V5.089A2.719,2.719,0,0,0,63.571,7.8h3.612V22.489A1.24,1.24,0,0,1,65.944,23.728Z"
      fill="#fff"
    />
    <path
      id="Trazado_2369"
      data-name="Trazado 2369"
      d="M195.12,195.859h3.164a.738.738,0,1,0,0-1.477H196.65v-.844a.738.738,0,0,0-1.477,0v.844h-.052a2.32,2.32,0,1,0,0,4.64H196.7a.844.844,0,0,1,0,1.687h-3.164a.738.738,0,0,0,0,1.477h1.634v.843a.738.738,0,1,0,1.477,0v-.843h.053a2.32,2.32,0,0,0,0-4.641H195.12a.843.843,0,1,1,0-1.687Z"
      transform="translate(-137.482 -183.309)"
      fill="#fff"
    />
  </g>
</svg>
