<svg
  xmlns="http://www.w3.org/2000/svg"
  width="169.915"
  height="215.504"
  viewBox="0 0 169.915 215.504"
>
  <g id="Grupo_3475" data-name="Grupo 3475" transform="translate(-962.776 -513.424)">
    <g id="Grupo_3471" data-name="Grupo 3471" transform="translate(975.238 717.878)">
      <path
        id="Trazado_2306"
        data-name="Trazado 2306"
        d="M975.785,603.5v.671a.136.136,0,0,1-.155.155h-3.056a.056.056,0,0,0-.061.064V614.1a.137.137,0,0,1-.157.155h-.8a.136.136,0,0,1-.155-.155v-9.711a.056.056,0,0,0-.062-.064h-2.931a.137.137,0,0,1-.157-.155V603.5a.137.137,0,0,1,.157-.155h7.217A.136.136,0,0,1,975.785,603.5Z"
        transform="translate(-968.257 -603.347)"
        fill="#fff"
      />
      <path
        id="Trazado_2307"
        data-name="Trazado 2307"
        d="M977.112,604.677h.8a.136.136,0,0,1,.155.155v7.576a.136.136,0,0,1-.155.155h-.8a.137.137,0,0,1-.157-.155v-.671a.048.048,0,0,0-.03-.045.032.032,0,0,0-.048.014,2.318,2.318,0,0,1-2.071.966,3.111,3.111,0,0,1-1.38-.3,2.367,2.367,0,0,1-1-.878,2.546,2.546,0,0,1-.366-1.389v-5.268a.136.136,0,0,1,.155-.155h.8a.137.137,0,0,1,.157.155v4.941a1.96,1.96,0,0,0,.5,1.412,1.786,1.786,0,0,0,1.357.521,1.809,1.809,0,0,0,1.93-1.932v-4.941A.137.137,0,0,1,977.112,604.677Z"
        transform="translate(-963.411 -601.653)"
        fill="#fff"
      />
      <path
        id="Trazado_2308"
        data-name="Trazado 2308"
        d="M982.423,606.994a2.641,2.641,0,0,1,.741,1.962V614.1a.137.137,0,0,1-.157.155h-.8a.136.136,0,0,1-.155-.155v-4.927a1.943,1.943,0,0,0-.523-1.4,1.783,1.783,0,0,0-1.348-.546,1.818,1.818,0,0,0-1.917,1.914V614.1a.136.136,0,0,1-.155.155h-.8a.137.137,0,0,1-.157-.155V603.5a.137.137,0,0,1,.157-.155h.8a.136.136,0,0,1,.155.155V607.2a.048.048,0,0,0,.023.045c.016.011.03,0,.039-.014a2.4,2.4,0,0,1,2.105-.966A2.7,2.7,0,0,1,982.423,606.994Z"
        transform="translate(-956.915 -603.347)"
        fill="#fff"
      />
      <path
        id="Trazado_2309"
        data-name="Trazado 2309"
        d="M982.034,612.18a2.937,2.937,0,0,1-1.123-1.589,6.788,6.788,0,0,1-.218-1.917,6.651,6.651,0,0,1,.218-1.9,2.884,2.884,0,0,1,1.107-1.573,3.3,3.3,0,0,1,1.964-.575,3.193,3.193,0,0,1,1.91.575,2.905,2.905,0,0,1,1.1,1.557,6.538,6.538,0,0,1,.218,1.919,6.4,6.4,0,0,1-.218,1.917,2.886,2.886,0,0,1-1.1,1.589,3.51,3.51,0,0,1-3.858,0Zm3.21-.8a2.027,2.027,0,0,0,.716-1.116,6.844,6.844,0,0,0,.141-1.573,7.449,7.449,0,0,0-.125-1.573,2.024,2.024,0,0,0-.725-1.116,2.068,2.068,0,0,0-1.3-.412,1.978,1.978,0,0,0-2.01,1.528,9.965,9.965,0,0,0,0,3.147,1.933,1.933,0,0,0,.709,1.116,2.09,2.09,0,0,0,1.316.412A2.016,2.016,0,0,0,985.245,611.379Z"
        transform="translate(-952.418 -601.723)"
        fill="#fff"
      />
      <path
        id="Trazado_2310"
        data-name="Trazado 2310"
        d="M988.271,606.732h-1.762a.054.054,0,0,0-.061.061v4.6a1.375,1.375,0,0,0,.334,1.053,1.54,1.54,0,0,0,1.053.3h.391a.138.138,0,0,1,.155.157v.639a.136.136,0,0,1-.155.155c-.125.011-.318.016-.577.016a2.853,2.853,0,0,1-1.7-.421,1.817,1.817,0,0,1-.578-1.56v-4.941c0-.041-.02-.061-.063-.061h-.95a.136.136,0,0,1-.155-.155v-.609a.136.136,0,0,1,.155-.155h.95a.056.056,0,0,0,.063-.064v-1.81a.139.139,0,0,1,.157-.155h.764a.138.138,0,0,1,.155.155v1.81c0,.043.02.064.061.064h1.762a.137.137,0,0,1,.157.155v.609A.137.137,0,0,1,988.271,606.732Z"
        transform="translate(-947.947 -602.789)"
        fill="#fff"
      />
      <path
        id="Trazado_2311"
        data-name="Trazado 2311"
        d="M993.137,608.458v.5a.137.137,0,0,1-.155.157h-5.034a.056.056,0,0,0-.064.064,6.98,6.98,0,0,0,.093,1.1,1.869,1.869,0,0,0,.734,1.107,2.378,2.378,0,0,0,1.432.4,2.231,2.231,0,0,0,1.153-.3,2.018,2.018,0,0,0,.78-.844c.063-.093.136-.111.218-.061l.607.359a.155.155,0,0,1,.063.218,2.785,2.785,0,0,1-1.169,1.176,3.658,3.658,0,0,1-1.792.43,3.282,3.282,0,0,1-1.855-.53,2.855,2.855,0,0,1-1.078-1.432,6.439,6.439,0,0,1-.28-2.153c0-.437.009-.791.025-1.066a3.485,3.485,0,0,1,.116-.741A2.885,2.885,0,0,1,988,605.229a3.117,3.117,0,0,1,1.939-.607,3.062,3.062,0,0,1,2.183.716,3.318,3.318,0,0,1,.95,2.026A8.056,8.056,0,0,1,993.137,608.458Zm-4.465-2.472a1.846,1.846,0,0,0-.662,1.066,5.09,5.09,0,0,0-.125,1.06c0,.043.021.061.064.061h4.036c.041,0,.064-.018.064-.061a7,7,0,0,0-.1-1,1.963,1.963,0,0,0-.693-1.116,2.056,2.056,0,0,0-1.316-.412A1.992,1.992,0,0,0,988.672,605.986Z"
        transform="translate(-944.647 -601.723)"
        fill="#fff"
      />
      <path
        id="Trazado_2312"
        data-name="Trazado 2312"
        d="M990.551,614.1V603.5a.137.137,0,0,1,.157-.155h.793a.137.137,0,0,1,.157.155v10.6a.137.137,0,0,1-.157.155h-.793A.137.137,0,0,1,990.551,614.1Z"
        transform="translate(-939.862 -603.347)"
        fill="#fff"
      />
      <path
        id="Trazado_2313"
        data-name="Trazado 2313"
        d="M999.742,608.458v.5a.139.139,0,0,1-.157.157h-5.034a.056.056,0,0,0-.064.064,7.043,7.043,0,0,0,.093,1.1,1.871,1.871,0,0,0,.734,1.107,2.379,2.379,0,0,0,1.433.4,2.23,2.23,0,0,0,1.153-.3,2.015,2.015,0,0,0,.78-.844c.064-.093.137-.111.218-.061l.609.359a.156.156,0,0,1,.062.218,2.787,2.787,0,0,1-1.169,1.176,3.659,3.659,0,0,1-1.792.43,3.282,3.282,0,0,1-1.855-.53,2.839,2.839,0,0,1-1.075-1.432,6.423,6.423,0,0,1-.282-2.153c0-.437.009-.791.025-1.066a3.5,3.5,0,0,1,.116-.741,2.883,2.883,0,0,1,1.069-1.621,3.118,3.118,0,0,1,1.939-.607,3.062,3.062,0,0,1,2.183.716,3.317,3.317,0,0,1,.95,2.026A8.006,8.006,0,0,1,999.742,608.458Zm-4.468-2.472a1.845,1.845,0,0,0-.662,1.066,5.086,5.086,0,0,0-.125,1.06c0,.043.021.061.064.061h4.036c.041,0,.063-.018.063-.061a7.385,7.385,0,0,0-.093-1,1.98,1.98,0,0,0-.7-1.116,2.056,2.056,0,0,0-1.316-.412A1.992,1.992,0,0,0,995.274,605.986Z"
        transform="translate(-936.238 -601.723)"
        fill="#fff"
      />
      <path
        id="Trazado_2314"
        data-name="Trazado 2314"
        d="M1002.414,605.361a2.639,2.639,0,0,1,.739,1.962v5.145a.136.136,0,0,1-.155.155h-.8a.136.136,0,0,1-.155-.155v-4.927a1.943,1.943,0,0,0-.523-1.4,1.783,1.783,0,0,0-1.348-.546,1.818,1.818,0,0,0-1.917,1.914v4.959a.137.137,0,0,1-.157.155h-.793a.137.137,0,0,1-.157-.155v-7.576a.137.137,0,0,1,.157-.155h.793a.137.137,0,0,1,.157.155v.671a.047.047,0,0,0,.023.045c.016.011.03,0,.039-.014a2.4,2.4,0,0,1,2.105-.966A2.7,2.7,0,0,1,1002.414,605.361Z"
        transform="translate(-931.453 -601.714)"
        fill="#fff"
      />
      <path
        id="Trazado_2315"
        data-name="Trazado 2315"
        d="M1005.987,606.732h-1.762a.056.056,0,0,0-.063.061v4.6a1.374,1.374,0,0,0,.336,1.053,1.532,1.532,0,0,0,1.053.3h.389a.138.138,0,0,1,.155.157v.639a.136.136,0,0,1-.155.155c-.125.011-.318.016-.577.016a2.853,2.853,0,0,1-1.7-.421,1.817,1.817,0,0,1-.577-1.56v-4.941a.054.054,0,0,0-.062-.061h-.95a.137.137,0,0,1-.157-.155v-.609a.137.137,0,0,1,.157-.155h.95c.041,0,.062-.02.062-.064v-1.81a.139.139,0,0,1,.157-.155h.764a.138.138,0,0,1,.155.155v1.81a.056.056,0,0,0,.063.064h1.762a.136.136,0,0,1,.155.155v.609A.136.136,0,0,1,1005.987,606.732Z"
        transform="translate(-925.386 -602.789)"
        fill="#fff"
      />
      <path
        id="Trazado_2316"
        data-name="Trazado 2316"
        d="M1009.71,604.677h.793a.137.137,0,0,1,.157.155v7.576a.137.137,0,0,1-.157.155h-.793a.137.137,0,0,1-.157-.155v-.671a.048.048,0,0,0-.032-.045.03.03,0,0,0-.045.014,2.322,2.322,0,0,1-2.073.966,3.118,3.118,0,0,1-1.38-.3,2.349,2.349,0,0,1-1-.878,2.527,2.527,0,0,1-.366-1.389v-5.268a.136.136,0,0,1,.155-.155h.8a.135.135,0,0,1,.155.155v4.941a1.952,1.952,0,0,0,.5,1.412,1.785,1.785,0,0,0,1.355.521,1.809,1.809,0,0,0,1.933-1.932v-4.941A.137.137,0,0,1,1009.71,604.677Z"
        transform="translate(-921.892 -601.653)"
        fill="#fff"
      />
      <path
        id="Trazado_2317"
        data-name="Trazado 2317"
        d="M1009.636,612.405a2.537,2.537,0,0,1-1.046-.75,1.654,1.654,0,0,1-.366-1.044v-.189a.138.138,0,0,1,.157-.155h.748a.137.137,0,0,1,.155.155v.125a1.1,1.1,0,0,0,.539.9,2.266,2.266,0,0,0,1.348.382,2.168,2.168,0,0,0,1.31-.366,1.114,1.114,0,0,0,.5-.93.847.847,0,0,0-.257-.637,1.865,1.865,0,0,0-.607-.391c-.234-.093-.6-.214-1.084-.357a11.046,11.046,0,0,1-1.433-.5,2.653,2.653,0,0,1-.943-.691,1.677,1.677,0,0,1-.382-1.132,1.892,1.892,0,0,1,.778-1.589,3.316,3.316,0,0,1,2.06-.591,3.879,3.879,0,0,1,1.519.28,2.368,2.368,0,0,1,1.021.771,1.822,1.822,0,0,1,.359,1.1v.046a.14.14,0,0,1-.157.157h-.732a.14.14,0,0,1-.157-.157v-.046a1.063,1.063,0,0,0-.507-.891,2.329,2.329,0,0,0-1.362-.357,2.281,2.281,0,0,0-1.28.321,1,1,0,0,0-.482.878.893.893,0,0,0,.468.814,6.369,6.369,0,0,0,1.448.559,14.7,14.7,0,0,1,1.466.5,2.724,2.724,0,0,1,.967.675,1.661,1.661,0,0,1,.4,1.162,1.93,1.93,0,0,1-.8,1.621,3.36,3.36,0,0,1-2.1.609A4.033,4.033,0,0,1,1009.636,612.405Z"
        transform="translate(-917.352 -601.696)"
        fill="#fff"
      />
      <path
        id="Trazado_2318"
        data-name="Trazado 2318"
        d="M1022.884,605.329a2.633,2.633,0,0,1,.68,1.917v5.223a.137.137,0,0,1-.157.155h-.778a.137.137,0,0,1-.157-.155v-5a1.88,1.88,0,0,0-.491-1.364,1.714,1.714,0,0,0-1.285-.5,1.822,1.822,0,0,0-1.334.5,1.8,1.8,0,0,0-.507,1.339v5.036a.137.137,0,0,1-.155.155h-.8a.137.137,0,0,1-.155-.155v-5a1.9,1.9,0,0,0-.484-1.364,1.7,1.7,0,0,0-1.294-.5,1.765,1.765,0,0,0-1.316.5,1.826,1.826,0,0,0-.491,1.339v5.036a.136.136,0,0,1-.155.155h-.8a.137.137,0,0,1-.157-.155v-7.576a.137.137,0,0,1,.157-.155h.8a.136.136,0,0,1,.155.155v.623c0,.021.007.034.023.039s.034,0,.055-.023a2.1,2.1,0,0,1,.882-.677,3.047,3.047,0,0,1,1.191-.225,2.787,2.787,0,0,1,1.387.325,2.109,2.109,0,0,1,.873.95c.021.055.048.055.08,0a2.253,2.253,0,0,1,.964-.957,3.089,3.089,0,0,1,1.419-.318A2.44,2.44,0,0,1,1022.884,605.329Z"
        transform="translate(-911.197 -601.714)"
        fill="#fff"
      />
      <path
        id="Trazado_2319"
        data-name="Trazado 2319"
        d="M1023.917,605.338a2.483,2.483,0,0,1,.764,1.9v5.239a.137.137,0,0,1-.157.155h-.793a.136.136,0,0,1-.155-.155v-.639a.056.056,0,0,0-.025-.048c-.016-.011-.034,0-.055.016a2.441,2.441,0,0,1-1.012.709,3.812,3.812,0,0,1-1.387.241,3,3,0,0,1-1.855-.562,2,2,0,0,1-.748-1.714,2.234,2.234,0,0,1,.848-1.846,3.689,3.689,0,0,1,2.362-.678h1.808a.056.056,0,0,0,.063-.064V607.3a1.721,1.721,0,0,0-.446-1.255,1.838,1.838,0,0,0-1.38-.459,2.274,2.274,0,0,0-1.214.289,1.2,1.2,0,0,0-.577.8.167.167,0,0,1-.187.143l-.841-.111c-.116-.02-.161-.061-.141-.125a2,2,0,0,1,.934-1.419,3.57,3.57,0,0,1,2.026-.543A3.036,3.036,0,0,1,1023.917,605.338Zm-1.012,6.009a1.433,1.433,0,0,0,.671-1.239v-1.216a.056.056,0,0,0-.063-.061h-1.637a2.906,2.906,0,0,0-1.653.421,1.337,1.337,0,0,0-.623,1.169,1.209,1.209,0,0,0,.475,1.037,2.05,2.05,0,0,0,1.239.35A2.743,2.743,0,0,0,1022.9,611.348Z"
        transform="translate(-904.272 -601.723)"
        fill="#fff"
      />
      <path
        id="Trazado_2320"
        data-name="Trazado 2320"
        d="M1027.491,605.361a2.64,2.64,0,0,1,.741,1.962v5.145a.137.137,0,0,1-.157.155h-.8a.136.136,0,0,1-.155-.155v-4.927a1.942,1.942,0,0,0-.523-1.4,1.782,1.782,0,0,0-1.348-.546,1.818,1.818,0,0,0-1.917,1.914v4.959a.137.137,0,0,1-.157.155h-.793a.137.137,0,0,1-.157-.155v-7.576a.137.137,0,0,1,.157-.155h.793a.137.137,0,0,1,.157.155v.671a.048.048,0,0,0,.023.045c.016.011.03,0,.039-.014a2.4,2.4,0,0,1,2.105-.966A2.7,2.7,0,0,1,1027.491,605.361Z"
        transform="translate(-899.514 -601.714)"
        fill="#fff"
      />
      <path
        id="Trazado_2321"
        data-name="Trazado 2321"
        d="M1027.1,612.18a2.951,2.951,0,0,1-1.123-1.589,6.809,6.809,0,0,1-.216-1.917,6.672,6.672,0,0,1,.216-1.9,2.885,2.885,0,0,1,1.107-1.573,3.3,3.3,0,0,1,1.965-.575,3.187,3.187,0,0,1,1.91.575,2.907,2.907,0,0,1,1.1,1.557,6.548,6.548,0,0,1,.218,1.919,6.406,6.406,0,0,1-.218,1.917,2.887,2.887,0,0,1-1.1,1.589,3.2,3.2,0,0,1-1.926.578A3.233,3.233,0,0,1,1027.1,612.18Zm3.21-.8a2.041,2.041,0,0,0,.719-1.116,6.863,6.863,0,0,0,.139-1.573,7.446,7.446,0,0,0-.125-1.573,2.019,2.019,0,0,0-.723-1.116,2.078,2.078,0,0,0-1.3-.412,1.982,1.982,0,0,0-2.01,1.528,9.984,9.984,0,0,0,0,3.147,1.934,1.934,0,0,0,.709,1.116,2.1,2.1,0,0,0,1.316.412A2.015,2.015,0,0,0,1030.311,611.379Z"
        transform="translate(-895.016 -601.723)"
        fill="#fff"
      />
      <path
        id="Trazado_2322"
        data-name="Trazado 2322"
        d="M1030.859,612.405a2.531,2.531,0,0,1-1.044-.75,1.641,1.641,0,0,1-.366-1.044v-.189a.138.138,0,0,1,.157-.155h.748a.137.137,0,0,1,.155.155v.125a1.1,1.1,0,0,0,.537.9,2.277,2.277,0,0,0,1.351.382,2.161,2.161,0,0,0,1.307-.366,1.11,1.11,0,0,0,.5-.93.847.847,0,0,0-.257-.637,1.873,1.873,0,0,0-.609-.391c-.232-.093-.6-.214-1.083-.357a11.207,11.207,0,0,1-1.435-.5,2.691,2.691,0,0,1-.944-.691,1.677,1.677,0,0,1-.382-1.132,1.894,1.894,0,0,1,.78-1.589,3.309,3.309,0,0,1,2.058-.591,3.9,3.9,0,0,1,1.521.28,2.345,2.345,0,0,1,1.019.771,1.822,1.822,0,0,1,.359,1.1v.046a.139.139,0,0,1-.155.157h-.732a.14.14,0,0,1-.157-.157v-.046a1.063,1.063,0,0,0-.507-.891,2.338,2.338,0,0,0-1.365-.357,2.279,2.279,0,0,0-1.278.321.994.994,0,0,0-.482.878.9.9,0,0,0,.466.814,6.39,6.39,0,0,0,1.451.559,14.436,14.436,0,0,1,1.464.5,2.683,2.683,0,0,1,.966.675,1.66,1.66,0,0,1,.4,1.162,1.933,1.933,0,0,1-.793,1.621,3.366,3.366,0,0,1-2.105.609A4.047,4.047,0,0,1,1030.859,612.405Z"
        transform="translate(-890.319 -601.696)"
        fill="#fff"
      />
    </g>
    <g id="Grupo_3472" data-name="Grupo 3472" transform="translate(988.123 651.317)">
      <path
        id="Trazado_2323"
        data-name="Trazado 2323"
        d="M985.063,624.49a16.524,16.524,0,0,1-6.007-4.015,18.032,18.032,0,0,1-3.806-6.18,22.044,22.044,0,0,1-1.326-7.751,19.6,19.6,0,0,1,2.2-9.5,16.353,16.353,0,0,1,6.041-6.355,17.032,17.032,0,0,1,8.938-2.306,14.546,14.546,0,0,1,4.086.559,12.022,12.022,0,0,1,3.492,1.642,10.507,10.507,0,0,1,2.617,2.549h.211V574.072h10.823v32.4a21.3,21.3,0,0,1-2.374,10.266,16.491,16.491,0,0,1-6.7,6.773,20.733,20.733,0,0,1-10.125,2.374A21.788,21.788,0,0,1,985.063,624.49Zm12.43-9.183a7.832,7.832,0,0,0,2.826-3.351,11.33,11.33,0,0,0,.978-4.784,11.083,11.083,0,0,0-.978-4.747,7.871,7.871,0,0,0-2.826-3.317,7.75,7.75,0,0,0-4.365-1.223,7.574,7.574,0,0,0-4.329,1.223,8.19,8.19,0,0,0-2.828,3.317,10.766,10.766,0,0,0-1.012,4.747,11,11,0,0,0,1.012,4.784,8.144,8.144,0,0,0,2.828,3.351,7.555,7.555,0,0,0,4.329,1.221A7.73,7.73,0,0,0,997.493,615.307Z"
        transform="translate(-973.924 -574.072)"
        fill="#00b5e2"
      />
      <path
        id="Trazado_2324"
        data-name="Trazado 2324"
        d="M1011.051,617.868a20.087,20.087,0,0,1-9.916-2.444,18.9,18.9,0,0,1-6.948-25.872,18.688,18.688,0,0,1,6.948-6.7,19.866,19.866,0,0,1,9.916-2.478,19.664,19.664,0,0,1,9.881,2.478,18.758,18.758,0,0,1,6.914,6.7,18.611,18.611,0,0,1-6.948,25.872A19.948,19.948,0,0,1,1011.051,617.868Zm0-9.427a7.879,7.879,0,0,0,4.47-1.257,8.539,8.539,0,0,0,2.933-3.351,10.482,10.482,0,0,0,1.048-4.75,10.315,10.315,0,0,0-1.048-4.677,8.531,8.531,0,0,0-2.933-3.354,7.879,7.879,0,0,0-4.47-1.257,8.037,8.037,0,0,0-4.5,1.257,8.426,8.426,0,0,0-2.969,3.354,10.315,10.315,0,0,0-1.048,4.677,10.482,10.482,0,0,0,1.048,4.75,8.434,8.434,0,0,0,2.969,3.351A8.037,8.037,0,0,0,1011.051,608.441Z"
        transform="translate(-951.362 -566.053)"
        fill="#00b5e2"
      />
      <path
        id="Trazado_2325"
        data-name="Trazado 2325"
        d="M1028.726,617.868a20.079,20.079,0,0,1-9.915-2.444,18.9,18.9,0,0,1-6.948-25.872,18.67,18.67,0,0,1,6.948-6.7,21.005,21.005,0,0,1,19.8,0,18.781,18.781,0,0,1,6.914,6.7,18.611,18.611,0,0,1-6.948,25.872A19.947,19.947,0,0,1,1028.726,617.868Zm0-9.427a7.884,7.884,0,0,0,4.47-1.257,8.539,8.539,0,0,0,2.933-3.351,10.481,10.481,0,0,0,1.046-4.75,10.313,10.313,0,0,0-1.046-4.677,8.531,8.531,0,0,0-2.933-3.354,7.884,7.884,0,0,0-4.47-1.257,8.045,8.045,0,0,0-4.5,1.257,8.438,8.438,0,0,0-2.967,3.354,10.315,10.315,0,0,0-1.048,4.677,10.482,10.482,0,0,0,1.048,4.75,8.446,8.446,0,0,0,2.967,3.351A8.045,8.045,0,0,0,1028.726,608.441Z"
        transform="translate(-928.849 -566.053)"
        fill="#00b5e2"
      />
    </g>
    <g id="Grupo_3473" data-name="Grupo 3473" transform="translate(962.776 600.255)">
      <path
        id="Trazado_2326"
        data-name="Trazado 2326"
        d="M1000.832,577.065a16.072,16.072,0,0,0,2.235-8.413,16.326,16.326,0,0,0-2.41-8.87,16.816,16.816,0,0,0-6.494-6.007,19.026,19.026,0,0,0-9.042-2.162H962.776v48.879h11.732V585.76h8.867l8.387,14.758h14l-10.8-17.412A17.964,17.964,0,0,0,1000.832,577.065Zm-10.509-4.4a6.7,6.7,0,0,1-2.758,2.515,8.318,8.318,0,0,1-3.772.873h-9.286V561.388h9.286a8.093,8.093,0,0,1,3.736.873,7.012,7.012,0,0,1,2.76,2.515,7.176,7.176,0,0,1,1.046,3.945A7.355,7.355,0,0,1,990.324,572.666Z"
        transform="translate(-962.776 -551.614)"
        fill="#fff"
      />
      <path
        id="Trazado_2327"
        data-name="Trazado 2327"
        d="M1010.98,559.1a20.99,20.99,0,0,0-19.8,0,18.649,18.649,0,0,0-6.948,6.7,18.611,18.611,0,0,0,6.948,25.872,21.2,21.2,0,0,0,19.763,0,18.9,18.9,0,0,0,6.948-25.872A18.758,18.758,0,0,0,1010.98,559.1Zm-2.478,20.984a8.542,8.542,0,0,1-2.933,3.351,7.867,7.867,0,0,1-4.47,1.257,8.027,8.027,0,0,1-4.5-1.257,8.449,8.449,0,0,1-2.967-3.351,10.474,10.474,0,0,1-1.048-4.75,10.314,10.314,0,0,1,1.048-4.677,8.418,8.418,0,0,1,2.967-3.351,8.027,8.027,0,0,1,4.5-1.257,7.867,7.867,0,0,1,4.47,1.257,8.51,8.51,0,0,1,2.933,3.351,10.313,10.313,0,0,1,1.046,4.677A10.474,10.474,0,0,1,1008.5,580.079Z"
        transform="translate(-938.691 -545.245)"
        fill="#fff"
      />
      <path
        id="Trazado_2328"
        data-name="Trazado 2328"
        d="M1084,564.193a14.711,14.711,0,0,0-5.935-5.552,21.307,21.307,0,0,0-14.072-1.43,18.146,18.146,0,0,0-4.12,1.605,14.171,14.171,0,0,0-3.247,2.41h-.139a12.857,12.857,0,0,0-3.178-2.41,18.292,18.292,0,0,0-4.086-1.605,19,19,0,0,0-4.886-.6,19.361,19.361,0,0,0-9.149,2.026,15.4,15.4,0,0,0-3.535,2.542,19.246,19.246,0,0,0-12.876-4.568,19.834,19.834,0,0,0-9.916,2.48,18.671,18.671,0,0,0-6.95,6.7,18.609,18.609,0,0,0,6.95,25.872,21.192,21.192,0,0,0,19.76,0,18.229,18.229,0,0,0,9.5-16.27c0-.553-.027-1.094-.068-1.628v-1.305a6.17,6.17,0,0,1,.839-3.176,6.607,6.607,0,0,1,2.34-2.34,6.776,6.776,0,0,1,6.773,0,6.919,6.919,0,0,1,2.374,2.34,5.986,5.986,0,0,1,.873,3.176v5.461h10.825v-5.461a6.169,6.169,0,0,1,.837-3.176,6.627,6.627,0,0,1,2.34-2.34,6.421,6.421,0,0,1,3.388-.907,6.236,6.236,0,0,1,3.351.907,7.017,7.017,0,0,1,2.34,2.34,5.986,5.986,0,0,1,.873,3.176v20.811h10.893V572.119A15.208,15.208,0,0,0,1084,564.193Zm-57.822,15.886a8.54,8.54,0,0,1-2.933,3.351,7.855,7.855,0,0,1-4.468,1.257,8.027,8.027,0,0,1-4.5-1.257,8.409,8.409,0,0,1-2.967-3.351,10.446,10.446,0,0,1-1.048-4.75,10.286,10.286,0,0,1,1.048-4.677,8.379,8.379,0,0,1,2.967-3.351,8.027,8.027,0,0,1,4.5-1.257,7.855,7.855,0,0,1,4.468,1.257,8.509,8.509,0,0,1,2.933,3.351,10.317,10.317,0,0,1,1.048,4.677A10.478,10.478,0,0,1,1026.175,580.079Z"
        transform="translate(-916.178 -545.245)"
        fill="#fff"
      />
      <rect
        id="Rectángulo_1949"
        data-name="Rectángulo 1949"
        width="10.823"
        height="8.875"
        transform="translate(135.07 39.157)"
        fill="#fff"
      />
    </g>
    <g id="Grupo_3474" data-name="Grupo 3474" transform="translate(1028.539 513.424)">
      <path
        id="Trazado_2329"
        data-name="Trazado 2329"
        d="M1029.191,537.628l-16.168-15.088a2.831,2.831,0,0,0-3.838-.021l-16.564,15.106a2.83,2.83,0,0,0-.921,2.089V572.39a2.829,2.829,0,0,0,2.828,2.828h32.729a2.829,2.829,0,0,0,2.831-2.828V539.7A2.83,2.83,0,0,0,1029.191,537.628Zm-27.546,34.814a7.621,7.621,0,1,1,7.622-7.621A7.621,7.621,0,0,1,1001.645,572.442Zm0-18.5a7.621,7.621,0,1,1,7.622-7.621A7.622,7.622,0,0,1,1001.645,553.946Zm18.5,18.5a7.621,7.621,0,1,1,7.621-7.621A7.621,7.621,0,0,1,1020.144,572.442Z"
        transform="translate(-991.7 -502.782)"
        fill="#00b5e2"
      />
      <circle
        id="Elipse_3"
        data-name="Elipse 3"
        cx="7.622"
        cy="7.622"
        r="7.622"
        transform="translate(20.821)"
        fill="#00b5e2"
      />
    </g>
  </g>
</svg>
