<svg
  xmlns="http://www.w3.org/2000/svg"
  width="143.419"
  height="35.705"
  viewBox="0 0 143.419 35.705"
>
  <g id="Grupo_3653" data-name="Grupo 3653" transform="translate(-708.374 -233.717)">
    <path
      id="Trazado_2292"
      data-name="Trazado 2292"
      d="M820.534,269.736a6.49,6.49,0,0,1-2.364-1.581,7.1,7.1,0,0,1-1.5-2.433,8.679,8.679,0,0,1-.522-3.052,7.718,7.718,0,0,1,.866-3.739,6.444,6.444,0,0,1,2.379-2.5,6.7,6.7,0,0,1,3.519-.908,5.733,5.733,0,0,1,1.609.22,4.729,4.729,0,0,1,1.374.646,4.123,4.123,0,0,1,1.031,1h.082v-7.506h4.261v12.757a8.383,8.383,0,0,1-.935,4.042,6.49,6.49,0,0,1-2.639,2.667,8.165,8.165,0,0,1-3.986.935A8.583,8.583,0,0,1,820.534,269.736Zm4.894-3.616a3.085,3.085,0,0,0,1.114-1.32,4.47,4.47,0,0,0,.385-1.883,4.377,4.377,0,0,0-.385-1.869,3.1,3.1,0,0,0-1.114-1.306,3.048,3.048,0,0,0-1.718-.482,2.982,2.982,0,0,0-1.705.482,3.231,3.231,0,0,0-1.114,1.306,4.238,4.238,0,0,0-.4,1.869,4.326,4.326,0,0,0,.4,1.883A3.213,3.213,0,0,0,822,266.12a2.976,2.976,0,0,0,1.705.482A3.041,3.041,0,0,0,825.428,266.12Z"
      transform="translate(-11.295 -1.694)"
      fill="#fff"
    />
    <path
      id="Trazado_2293"
      data-name="Trazado 2293"
      d="M841.506,270.945a7.9,7.9,0,0,1-3.9-.962,7.44,7.44,0,0,1-2.736-10.186,7.342,7.342,0,0,1,2.736-2.639,8.264,8.264,0,0,1,7.794,0,7.375,7.375,0,0,1,2.721,2.639,7.328,7.328,0,0,1-2.735,10.186A7.844,7.844,0,0,1,841.506,270.945Zm0-3.711a3.1,3.1,0,0,0,1.76-.5,3.37,3.37,0,0,0,1.155-1.32,4.124,4.124,0,0,0,.412-1.87,4.061,4.061,0,0,0-.412-1.841,3.366,3.366,0,0,0-1.155-1.32,3.1,3.1,0,0,0-1.76-.494,3.167,3.167,0,0,0-1.773.494,3.323,3.323,0,0,0-1.168,1.32,4.062,4.062,0,0,0-.413,1.841,4.125,4.125,0,0,0,.413,1.87,3.326,3.326,0,0,0,1.168,1.32A3.161,3.161,0,0,0,841.506,267.234Z"
      transform="translate(-13.152 -2.354)"
      fill="#fff"
    />
    <path
      id="Trazado_2294"
      data-name="Trazado 2294"
      d="M859.182,270.945a7.894,7.894,0,0,1-3.9-.962,7.442,7.442,0,0,1-2.737-10.186,7.344,7.344,0,0,1,2.737-2.639,8.264,8.264,0,0,1,7.794,0,7.381,7.381,0,0,1,2.721,2.639,7.328,7.328,0,0,1-2.736,10.186A7.841,7.841,0,0,1,859.182,270.945Zm0-3.711a3.1,3.1,0,0,0,1.759-.5,3.362,3.362,0,0,0,1.155-1.32,4.125,4.125,0,0,0,.413-1.87,4.061,4.061,0,0,0-.413-1.841,3.358,3.358,0,0,0-1.155-1.32,3.1,3.1,0,0,0-1.759-.494,3.167,3.167,0,0,0-1.773.494,3.317,3.317,0,0,0-1.169,1.32,4.06,4.06,0,0,0-.412,1.841,4.124,4.124,0,0,0,.412,1.87,3.321,3.321,0,0,0,1.169,1.32A3.161,3.161,0,0,0,859.182,267.234Z"
      transform="translate(-15.004 -2.354)"
      fill="#fff"
    />
    <g id="Grupo_3466" data-name="Grupo 3466" transform="translate(737.135 249.35)">
      <path
        id="Trazado_2295"
        data-name="Trazado 2295"
        d="M755.486,261.2a6.329,6.329,0,0,0,.88-3.312,6.427,6.427,0,0,0-.949-3.492,6.62,6.62,0,0,0-2.557-2.365,7.49,7.49,0,0,0-3.56-.851h-8.8v19.245h4.619v-5.8h3.491l3.3,5.811h5.512l-4.25-6.855A7.073,7.073,0,0,0,755.486,261.2Zm-4.138-1.732a2.636,2.636,0,0,1-1.086.99,3.275,3.275,0,0,1-1.485.344h-3.656v-5.774h3.656a3.192,3.192,0,0,1,1.472.344,2.758,2.758,0,0,1,1.086.99,2.826,2.826,0,0,1,.412,1.553A2.9,2.9,0,0,1,751.348,259.469Z"
        transform="translate(-740.502 -251.18)"
        fill="#3f4443"
      />
      <path
        id="Trazado_2296"
        data-name="Trazado 2296"
        d="M770.946,257.157a8.271,8.271,0,0,0-7.795,0,7.351,7.351,0,0,0-2.736,2.64,7.328,7.328,0,0,0,2.736,10.186,8.345,8.345,0,0,0,7.781,0,7.44,7.44,0,0,0,2.736-10.186A7.393,7.393,0,0,0,770.946,257.157Zm-.976,8.263a3.362,3.362,0,0,1-1.155,1.32,3.1,3.1,0,0,1-1.76.5,3.161,3.161,0,0,1-1.773-.5,3.326,3.326,0,0,1-1.168-1.32,4.124,4.124,0,0,1-.413-1.87,4.061,4.061,0,0,1,.413-1.841,3.322,3.322,0,0,1,1.168-1.32,3.167,3.167,0,0,1,1.773-.494,3.1,3.1,0,0,1,1.76.494,3.358,3.358,0,0,1,1.155,1.32,4.059,4.059,0,0,1,.412,1.841A4.123,4.123,0,0,1,769.97,265.419Z"
        transform="translate(-742.484 -251.704)"
        fill="#3f4443"
      />
      <path
        id="Trazado_2297"
        data-name="Trazado 2297"
        d="M810.411,259.165a5.792,5.792,0,0,0-2.336-2.186,8.389,8.389,0,0,0-5.54-.563,7.124,7.124,0,0,0-1.622.632,5.576,5.576,0,0,0-1.278.949h-.055a5.06,5.06,0,0,0-1.251-.949,7.16,7.16,0,0,0-1.608-.632,7.491,7.491,0,0,0-1.925-.235,7.623,7.623,0,0,0-3.6.8,6.076,6.076,0,0,0-1.392,1,7.564,7.564,0,0,0-5.069-1.8,7.818,7.818,0,0,0-3.9.976,7.351,7.351,0,0,0-2.736,2.64,7.328,7.328,0,0,0,2.736,10.186,8.344,8.344,0,0,0,7.78,0,7.177,7.177,0,0,0,3.739-6.406c0-.217-.011-.431-.026-.641v-.514a2.429,2.429,0,0,1,.329-1.251,2.6,2.6,0,0,1,.921-.921,2.667,2.667,0,0,1,2.667,0,2.725,2.725,0,0,1,.935.921,2.356,2.356,0,0,1,.344,1.251v2.15h4.262v-2.15a2.438,2.438,0,0,1,.329-1.251,2.61,2.61,0,0,1,.921-.921,2.528,2.528,0,0,1,1.334-.357,2.456,2.456,0,0,1,1.32.357,2.765,2.765,0,0,1,.921.921,2.357,2.357,0,0,1,.344,1.251v8.194h4.289v-8.331A5.987,5.987,0,0,0,810.411,259.165Zm-22.766,6.255a3.361,3.361,0,0,1-1.155,1.32,3.092,3.092,0,0,1-1.759.5,3.16,3.16,0,0,1-1.773-.5,3.317,3.317,0,0,1-1.168-1.32,4.11,4.11,0,0,1-.413-1.87,4.047,4.047,0,0,1,.413-1.841,3.313,3.313,0,0,1,1.168-1.32,3.166,3.166,0,0,1,1.773-.494,3.1,3.1,0,0,1,1.759.494,3.358,3.358,0,0,1,1.155,1.32,4.049,4.049,0,0,1,.413,1.841A4.112,4.112,0,0,1,787.645,265.419Z"
        transform="translate(-744.336 -251.704)"
        fill="#3f4443"
      />
      <rect
        id="Rectángulo_1943"
        data-name="Rectángulo 1943"
        width="4.261"
        height="3.494"
        transform="translate(53.18 15.417)"
        fill="#3f4443"
      />
    </g>
    <path
      id="Trazado_2298"
      data-name="Trazado 2298"
      d="M726.854,251.989l-7.969-7.437a1.4,1.4,0,0,0-1.892-.011l-8.163,7.446a1.394,1.394,0,0,0-.456,1.03v16.105a1.4,1.4,0,0,0,1.4,1.395H725.9a1.4,1.4,0,0,0,1.395-1.395V253.009A1.393,1.393,0,0,0,726.854,251.989ZM713.277,269.15a3.757,3.757,0,1,1,3.756-3.757A3.757,3.757,0,0,1,713.277,269.15Zm0-9.118a3.757,3.757,0,1,1,3.756-3.757A3.757,3.757,0,0,1,713.277,260.033Zm9.118,9.118a3.757,3.757,0,1,1,3.757-3.757A3.757,3.757,0,0,1,722.395,269.15Z"
      transform="translate(0 -1.096)"
      fill="#fff"
    />
    <circle
      id="Elipse_1"
      data-name="Elipse 1"
      cx="3.757"
      cy="3.757"
      r="3.757"
      transform="translate(718.638 233.717)"
      fill="#fff"
    />
  </g>
</svg>
