<svg xmlns="http://www.w3.org/2000/svg" width="491.093" height="154.196" viewBox="0 0 491.093 154.196">
  <g id="Grupo_3478" data-name="Grupo 3478" transform="translate(-708.374 -533.607)">
    <g id="Grupo_3476" data-name="Grupo 3476" transform="translate(807.156 672.902)">
      <path id="Trazado_2330" data-name="Trazado 2330" d="M750.749,579.26v.9a.184.184,0,0,1-.208.208h-4.12a.073.073,0,0,0-.083.083v13.1a.185.185,0,0,1-.211.208h-1.073a.184.184,0,0,1-.208-.208v-13.1a.077.077,0,0,0-.086-.083h-3.951a.183.183,0,0,1-.209-.208v-.9a.185.185,0,0,1,.209-.211h9.732A.186.186,0,0,1,750.749,579.26Z" transform="translate(-740.6 -579.049)" fill="#fff"/>
      <path id="Trazado_2331" data-name="Trazado 2331" d="M751.213,580.379h1.07a.187.187,0,0,1,.211.211V590.8a.185.185,0,0,1-.211.208h-1.07A.185.185,0,0,1,751,590.8v-.9a.068.068,0,0,0-.043-.064.044.044,0,0,0-.061.021,3.138,3.138,0,0,1-2.8,1.3,4.2,4.2,0,0,1-1.861-.411,3.187,3.187,0,0,1-1.343-1.183,3.408,3.408,0,0,1-.493-1.873v-7.1a.186.186,0,0,1,.208-.211h1.073a.185.185,0,0,1,.208.211v6.661a2.642,2.642,0,0,0,.675,1.9,2.406,2.406,0,0,0,1.827.7A2.439,2.439,0,0,0,751,587.251V580.59A.187.187,0,0,1,751.213,580.379Z" transform="translate(-732.742 -576.302)" fill="#fff"/>
      <path id="Trazado_2332" data-name="Trazado 2332" d="M756.6,583.969a3.557,3.557,0,0,1,1,2.646v6.937a.184.184,0,0,1-.208.208h-1.073a.184.184,0,0,1-.208-.208v-6.643a2.619,2.619,0,0,0-.705-1.888,2.4,2.4,0,0,0-1.818-.739A2.452,2.452,0,0,0,751,586.865v6.686a.185.185,0,0,1-.212.208h-1.07a.185.185,0,0,1-.211-.208V579.26a.187.187,0,0,1,.211-.211h1.07a.187.187,0,0,1,.212.211v4.981a.068.068,0,0,0,.031.061c.021.015.04.006.052-.022a3.247,3.247,0,0,1,2.838-1.3A3.646,3.646,0,0,1,756.6,583.969Z" transform="translate(-722.208 -579.049)" fill="#fff"/>
      <path id="Trazado_2333" data-name="Trazado 2333" d="M754.841,590.514a3.971,3.971,0,0,1-1.511-2.143,9.15,9.15,0,0,1-.294-2.584,8.949,8.949,0,0,1,.294-2.566,3.887,3.887,0,0,1,1.493-2.121,4.438,4.438,0,0,1,2.645-.776,4.292,4.292,0,0,1,2.575.776,3.926,3.926,0,0,1,1.484,2.1,8.837,8.837,0,0,1,.291,2.587,8.662,8.662,0,0,1-.291,2.584,3.9,3.9,0,0,1-1.484,2.143,4.308,4.308,0,0,1-2.6.779A4.361,4.361,0,0,1,754.841,590.514Zm4.328-1.082a2.727,2.727,0,0,0,.969-1.5,9.268,9.268,0,0,0,.187-2.121,10.333,10.333,0,0,0-.166-2.124,2.709,2.709,0,0,0-.978-1.5,2.8,2.8,0,0,0-1.753-.555,2.675,2.675,0,0,0-2.713,2.057,13.459,13.459,0,0,0,0,4.245,2.631,2.631,0,0,0,.956,1.5,2.816,2.816,0,0,0,1.775.558A2.7,2.7,0,0,0,759.17,589.432Z" transform="translate(-714.916 -576.414)" fill="#fff"/>
      <path id="Trazado_2334" data-name="Trazado 2334" d="M762.032,583.461h-2.376a.073.073,0,0,0-.083.083v6.2a1.846,1.846,0,0,0,.45,1.416,2.066,2.066,0,0,0,1.419.411h.524a.187.187,0,0,1,.211.212v.861a.185.185,0,0,1-.211.208c-.169.015-.426.021-.779.021a3.848,3.848,0,0,1-2.29-.567,2.454,2.454,0,0,1-.778-2.1v-6.661a.072.072,0,0,0-.083-.083h-1.281a.187.187,0,0,1-.212-.211v-.818a.187.187,0,0,1,.212-.211h1.281c.058,0,.083-.025.083-.083V579.7a.186.186,0,0,1,.211-.209h1.03a.186.186,0,0,1,.212.209v2.44a.072.072,0,0,0,.083.083h2.376a.186.186,0,0,1,.208.211v.818A.186.186,0,0,1,762.032,583.461Z" transform="translate(-707.669 -578.142)" fill="#fff"/>
      <path id="Trazado_2335" data-name="Trazado 2335" d="M767.689,585.493v.671a.184.184,0,0,1-.208.208h-6.79c-.055,0-.083.031-.083.089a9.358,9.358,0,0,0,.126,1.49,2.5,2.5,0,0,0,.987,1.49,3.2,3.2,0,0,0,1.934.549,3.005,3.005,0,0,0,1.554-.4,2.736,2.736,0,0,0,1.052-1.137q.124-.189.294-.083l.818.484a.206.206,0,0,1,.083.294,3.777,3.777,0,0,1-1.576,1.585,4.916,4.916,0,0,1-2.416.579,4.41,4.41,0,0,1-2.5-.717,3.82,3.82,0,0,1-1.45-1.931,8.652,8.652,0,0,1-.377-2.9c0-.588.009-1.067.031-1.441a4.5,4.5,0,0,1,.159-1,3.89,3.89,0,0,1,1.438-2.189,4.235,4.235,0,0,1,2.618-.815,4.12,4.12,0,0,1,2.94.966,4.476,4.476,0,0,1,1.284,2.731A10.856,10.856,0,0,1,767.689,585.493Zm-6.02-3.332a2.475,2.475,0,0,0-.892,1.441,6.621,6.621,0,0,0-.168,1.428c0,.058.027.083.083.083h5.444a.072.072,0,0,0,.083-.083,9.581,9.581,0,0,0-.126-1.346,2.645,2.645,0,0,0-.935-1.5,2.772,2.772,0,0,0-1.775-.555A2.7,2.7,0,0,0,761.669,582.161Z" transform="translate(-702.315 -576.414)" fill="#fff"/>
      <path id="Trazado_2336" data-name="Trazado 2336" d="M762.893,593.551V579.26a.187.187,0,0,1,.211-.211h1.073a.186.186,0,0,1,.208.211v14.291a.184.184,0,0,1-.208.208H763.1A.185.185,0,0,1,762.893,593.551Z" transform="translate(-694.558 -579.049)" fill="#fff"/>
      <path id="Trazado_2337" data-name="Trazado 2337" d="M774.291,585.493v.671a.184.184,0,0,1-.208.208h-6.79c-.055,0-.083.031-.083.089a9.42,9.42,0,0,0,.126,1.49,2.5,2.5,0,0,0,.987,1.49,3.2,3.2,0,0,0,1.934.549,3,3,0,0,0,1.554-.4,2.736,2.736,0,0,0,1.052-1.137q.125-.189.294-.083l.818.484a.206.206,0,0,1,.083.294,3.777,3.777,0,0,1-1.575,1.585,4.916,4.916,0,0,1-2.416.579,4.416,4.416,0,0,1-2.5-.717,3.818,3.818,0,0,1-1.45-1.931,8.652,8.652,0,0,1-.377-2.9c0-.588.012-1.067.031-1.441a4.467,4.467,0,0,1,.159-1,3.889,3.889,0,0,1,1.438-2.189,4.235,4.235,0,0,1,2.618-.815,4.12,4.12,0,0,1,2.939.966,4.475,4.475,0,0,1,1.284,2.731A10.856,10.856,0,0,1,774.291,585.493Zm-6.02-3.332a2.477,2.477,0,0,0-.892,1.441,6.653,6.653,0,0,0-.168,1.428.072.072,0,0,0,.083.083h5.444a.072.072,0,0,0,.083-.083,9.619,9.619,0,0,0-.126-1.346,2.646,2.646,0,0,0-.935-1.5,2.771,2.771,0,0,0-1.775-.555A2.7,2.7,0,0,0,768.271,582.161Z" transform="translate(-688.68 -576.414)" fill="#fff"/>
      <path id="Trazado_2338" data-name="Trazado 2338" d="M776.588,581.319a3.559,3.559,0,0,1,1,2.646V590.9a.185.185,0,0,1-.211.208h-1.07a.185.185,0,0,1-.211-.208v-6.643a2.606,2.606,0,0,0-.705-1.888,2.4,2.4,0,0,0-1.815-.739,2.456,2.456,0,0,0-2.587,2.584V590.9a.184.184,0,0,1-.208.208h-1.073a.185.185,0,0,1-.211-.208V580.688a.187.187,0,0,1,.211-.211h1.073a.186.186,0,0,1,.208.211v.9a.071.071,0,0,0,.034.061c.019.015.037.006.052-.022a3.241,3.241,0,0,1,2.835-1.3A3.637,3.637,0,0,1,776.588,581.319Z" transform="translate(-680.923 -576.399)" fill="#fff"/>
      <path id="Trazado_2339" data-name="Trazado 2339" d="M779.744,583.461h-2.376a.073.073,0,0,0-.083.083v6.2a1.846,1.846,0,0,0,.45,1.416,2.076,2.076,0,0,0,1.419.411h.527a.186.186,0,0,1,.208.212v.861a.184.184,0,0,1-.208.208c-.168.015-.429.021-.778.021a3.847,3.847,0,0,1-2.29-.567,2.454,2.454,0,0,1-.779-2.1v-6.661c0-.055-.028-.083-.086-.083h-1.281a.186.186,0,0,1-.208-.211v-.818a.186.186,0,0,1,.208-.211h1.281c.058,0,.086-.025.086-.083V579.7a.186.186,0,0,1,.212-.209h1.03a.185.185,0,0,1,.208.209v2.44a.072.072,0,0,0,.083.083h2.376a.187.187,0,0,1,.211.211v.818A.187.187,0,0,1,779.744,583.461Z" transform="translate(-671.082 -578.142)" fill="#fff"/>
      <path id="Trazado_2340" data-name="Trazado 2340" d="M783.813,580.379h1.07a.185.185,0,0,1,.208.211V590.8a.183.183,0,0,1-.208.208h-1.07a.185.185,0,0,1-.211-.208v-.9a.073.073,0,0,0-.043-.064.047.047,0,0,0-.064.021,3.128,3.128,0,0,1-2.792,1.3,4.2,4.2,0,0,1-1.861-.411,3.21,3.21,0,0,1-1.345-1.183,3.431,3.431,0,0,1-.494-1.873v-7.1a.187.187,0,0,1,.211-.211h1.07a.187.187,0,0,1,.212.211v6.661a2.653,2.653,0,0,0,.671,1.9,2.413,2.413,0,0,0,1.83.7,2.443,2.443,0,0,0,2.605-2.606V580.59A.187.187,0,0,1,783.813,580.379Z" transform="translate(-665.419 -576.302)" fill="#fff"/>
      <path id="Trazado_2341" data-name="Trazado 2341" d="M782.468,590.81a3.4,3.4,0,0,1-1.407-1.008,2.215,2.215,0,0,1-.494-1.41v-.251a.185.185,0,0,1,.211-.208h1.009a.184.184,0,0,1,.208.208v.169a1.484,1.484,0,0,0,.723,1.211,3.07,3.07,0,0,0,1.821.512,2.893,2.893,0,0,0,1.762-.494,1.488,1.488,0,0,0,.675-1.251,1.141,1.141,0,0,0-.346-.858,2.521,2.521,0,0,0-.822-.527c-.313-.126-.8-.288-1.459-.481a15.1,15.1,0,0,1-1.934-.674,3.6,3.6,0,0,1-1.272-.935,2.257,2.257,0,0,1-.515-1.523,2.553,2.553,0,0,1,1.052-2.143,4.462,4.462,0,0,1,2.774-.8,5.25,5.25,0,0,1,2.051.377,3.2,3.2,0,0,1,1.376,1.042,2.476,2.476,0,0,1,.481,1.484v.061a.185.185,0,0,1-.208.208h-.987a.186.186,0,0,1-.211-.208v-.061a1.425,1.425,0,0,0-.684-1.2,3.152,3.152,0,0,0-1.839-.481,3.1,3.1,0,0,0-1.723.429,1.349,1.349,0,0,0-.65,1.186,1.21,1.21,0,0,0,.628,1.1,8.616,8.616,0,0,0,1.956.754,20.279,20.279,0,0,1,1.974.671,3.621,3.621,0,0,1,1.3.913,2.237,2.237,0,0,1,.546,1.566,2.608,2.608,0,0,1-1.07,2.186,4.534,4.534,0,0,1-2.835.818A5.458,5.458,0,0,1,782.468,590.81Z" transform="translate(-658.056 -576.372)" fill="#fff"/>
      <path id="Trazado_2342" data-name="Trazado 2342" d="M798.648,581.276a3.556,3.556,0,0,1,.914,2.584V590.9a.184.184,0,0,1-.208.208H798.3a.185.185,0,0,1-.212-.208v-6.747a2.532,2.532,0,0,0-.659-1.839,2.315,2.315,0,0,0-1.735-.684,2.452,2.452,0,0,0-1.8.675,2.414,2.414,0,0,0-.683,1.805v6.79a.184.184,0,0,1-.208.208h-1.073a.185.185,0,0,1-.211-.208v-6.747a2.566,2.566,0,0,0-.65-1.839,2.308,2.308,0,0,0-1.744-.684,2.384,2.384,0,0,0-1.778.675,2.46,2.46,0,0,0-.659,1.805v6.79a.185.185,0,0,1-.212.208h-1.07a.185.185,0,0,1-.211-.208V580.688a.187.187,0,0,1,.211-.211h1.07a.187.187,0,0,1,.212.211v.84c0,.028.009.046.031.052s.043,0,.074-.031a2.823,2.823,0,0,1,1.186-.913,4.124,4.124,0,0,1,1.609-.3,3.735,3.735,0,0,1,1.87.438,2.844,2.844,0,0,1,1.177,1.281c.028.073.064.073.1,0a3.026,3.026,0,0,1,1.3-1.291,4.165,4.165,0,0,1,1.913-.429A3.3,3.3,0,0,1,798.648,581.276Z" transform="translate(-648.074 -576.399)" fill="#fff"/>
      <path id="Trazado_2343" data-name="Trazado 2343" d="M798.15,581.291a3.349,3.349,0,0,1,1.03,2.563v7.063a.185.185,0,0,1-.211.208H797.9a.185.185,0,0,1-.212-.208v-.861a.073.073,0,0,0-.031-.064c-.021-.015-.046-.006-.073.021a3.251,3.251,0,0,1-1.367.953,5.056,5.056,0,0,1-1.87.328,4.05,4.05,0,0,1-2.5-.757,2.7,2.7,0,0,1-1.008-2.311,3.024,3.024,0,0,1,1.146-2.492,4.988,4.988,0,0,1,3.182-.91h2.44c.055,0,.083-.028.083-.086v-.8a2.332,2.332,0,0,0-.6-1.692,2.487,2.487,0,0,0-1.861-.619,3.076,3.076,0,0,0-1.64.389,1.621,1.621,0,0,0-.776,1.079.229.229,0,0,1-.254.193l-1.134-.15c-.153-.027-.218-.086-.187-.169a2.7,2.7,0,0,1,1.26-1.913,4.805,4.805,0,0,1,2.731-.733A4.093,4.093,0,0,1,798.15,581.291Zm-1.367,8.1a1.929,1.929,0,0,0,.9-1.671v-1.64A.075.075,0,0,0,797.6,586H795.4a3.9,3.9,0,0,0-2.229.57,1.8,1.8,0,0,0-.84,1.575,1.623,1.623,0,0,0,.641,1.4,2.759,2.759,0,0,0,1.671.472A3.682,3.682,0,0,0,796.783,589.392Z" transform="translate(-636.847 -576.414)" fill="#fff"/>
      <path id="Trazado_2344" data-name="Trazado 2344" d="M801.666,581.319a3.57,3.57,0,0,1,1,2.646V590.9a.185.185,0,0,1-.211.208h-1.07a.185.185,0,0,1-.211-.208v-6.643a2.606,2.606,0,0,0-.705-1.888,2.394,2.394,0,0,0-1.814-.739,2.456,2.456,0,0,0-2.587,2.584V590.9a.184.184,0,0,1-.208.208h-1.073a.184.184,0,0,1-.208-.208V580.688a.186.186,0,0,1,.208-.211h1.073a.186.186,0,0,1,.208.211v.9a.071.071,0,0,0,.034.061c.021.015.037.006.052-.022a3.247,3.247,0,0,1,2.838-1.3A3.647,3.647,0,0,1,801.666,581.319Z" transform="translate(-629.129 -576.399)" fill="#fff"/>
      <path id="Trazado_2345" data-name="Trazado 2345" d="M799.911,590.514a3.961,3.961,0,0,1-1.514-2.143,9.16,9.16,0,0,1-.294-2.584,8.959,8.959,0,0,1,.294-2.566,3.89,3.89,0,0,1,1.493-2.121,4.449,4.449,0,0,1,2.648-.776,4.3,4.3,0,0,1,2.575.776,3.919,3.919,0,0,1,1.48,2.1,8.811,8.811,0,0,1,.294,2.587,8.635,8.635,0,0,1-.294,2.584,3.892,3.892,0,0,1-1.48,2.143,4.734,4.734,0,0,1-5.2,0Zm4.328-1.082a2.72,2.72,0,0,0,.966-1.5,9.223,9.223,0,0,0,.19-2.121,10.071,10.071,0,0,0-.169-2.124,2.706,2.706,0,0,0-.978-1.5,2.787,2.787,0,0,0-1.753-.555,2.75,2.75,0,0,0-1.744.555,2.705,2.705,0,0,0-.966,1.5,13.459,13.459,0,0,0,0,4.245,2.6,2.6,0,0,0,.957,1.5,2.8,2.8,0,0,0,1.775.558A2.7,2.7,0,0,0,804.24,589.432Z" transform="translate(-621.839 -576.414)" fill="#fff"/>
      <path id="Trazado_2346" data-name="Trazado 2346" d="M803.694,590.81a3.386,3.386,0,0,1-1.407-1.008,2.218,2.218,0,0,1-.5-1.41v-.251a.185.185,0,0,1,.211-.208h1.009a.185.185,0,0,1,.211.208v.169a1.477,1.477,0,0,0,.724,1.211,3.06,3.06,0,0,0,1.818.512,2.9,2.9,0,0,0,1.766-.494,1.493,1.493,0,0,0,.671-1.251,1.13,1.13,0,0,0-.346-.858,2.476,2.476,0,0,0-.818-.527c-.316-.126-.8-.288-1.462-.481a14.863,14.863,0,0,1-1.931-.674,3.549,3.549,0,0,1-1.272-.935,2.258,2.258,0,0,1-.515-1.523,2.545,2.545,0,0,1,1.052-2.143,4.455,4.455,0,0,1,2.774-.8,5.222,5.222,0,0,1,2.048.377,3.2,3.2,0,0,1,1.376,1.042,2.458,2.458,0,0,1,.484,1.484v.061a.186.186,0,0,1-.212.208h-.987a.186.186,0,0,1-.211-.208v-.061a1.429,1.429,0,0,0-.68-1.2,3.159,3.159,0,0,0-1.839-.481,3.09,3.09,0,0,0-1.723.429,1.351,1.351,0,0,0-.653,1.186,1.212,1.212,0,0,0,.631,1.1,8.575,8.575,0,0,0,1.953.754,20.35,20.35,0,0,1,1.977.671,3.646,3.646,0,0,1,1.3.913,2.237,2.237,0,0,1,.546,1.566,2.6,2.6,0,0,1-1.073,2.186,4.528,4.528,0,0,1-2.835.818A5.444,5.444,0,0,1,803.694,590.81Z" transform="translate(-614.222 -576.372)" fill="#fff"/>
    </g>
    <path id="Trazado_2347" data-name="Trazado 2347" d="M831.163,617.747a22.226,22.226,0,0,1-8.1-5.413A24.316,24.316,0,0,1,817.936,604a29.709,29.709,0,0,1-1.787-10.45,26.429,26.429,0,0,1,2.964-12.8,22.066,22.066,0,0,1,8.145-8.568,22.946,22.946,0,0,1,12.05-3.105,19.633,19.633,0,0,1,5.508.754,16.261,16.261,0,0,1,4.705,2.21,14.169,14.169,0,0,1,3.531,3.436h.282v-25.7h14.591v43.684a28.708,28.708,0,0,1-3.2,13.84,22.226,22.226,0,0,1-9.037,9.132,27.956,27.956,0,0,1-13.65,3.2A29.325,29.325,0,0,1,831.163,617.747Zm16.758-12.378a10.573,10.573,0,0,0,3.813-4.521,15.3,15.3,0,0,0,1.318-6.446,15,15,0,0,0-1.318-6.4,10.655,10.655,0,0,0-3.813-4.472,10.436,10.436,0,0,0-5.882-1.646,10.211,10.211,0,0,0-5.839,1.646A11.106,11.106,0,0,0,832.386,588a14.527,14.527,0,0,0-1.364,6.4,14.813,14.813,0,0,0,1.364,6.446,11.012,11.012,0,0,0,3.813,4.521,10.211,10.211,0,0,0,5.839,1.646A10.436,10.436,0,0,0,847.921,605.37Z" transform="translate(222.588 33.391)" fill="#00b5e2"/>
    <path id="Trazado_2348" data-name="Trazado 2348" d="M860.035,606.624a27.071,27.071,0,0,1-13.368-3.292,25.48,25.48,0,0,1-9.367-34.883,25.162,25.162,0,0,1,9.367-9.036,28.32,28.32,0,0,1,26.69,0,25.276,25.276,0,0,1,9.319,9.036,25.1,25.1,0,0,1-9.365,34.883A26.893,26.893,0,0,1,860.035,606.624Zm0-12.709a10.629,10.629,0,0,0,6.026-1.692,11.524,11.524,0,0,0,3.954-4.521,14.116,14.116,0,0,0,1.41-6.4,13.906,13.906,0,0,0-1.41-6.308,11.513,11.513,0,0,0-3.954-4.518,10.605,10.605,0,0,0-6.026-1.7,10.821,10.821,0,0,0-6.073,1.7,11.368,11.368,0,0,0-4,4.518,13.91,13.91,0,0,0-1.413,6.308,14.12,14.12,0,0,0,1.413,6.4,11.379,11.379,0,0,0,4,4.521A10.846,10.846,0,0,0,860.035,593.915Z" transform="translate(259.173 46.396)" fill="#00b5e2"/>
    <path id="Trazado_2349" data-name="Trazado 2349" d="M877.711,606.624a27.063,27.063,0,0,1-13.368-3.292,25.486,25.486,0,0,1-9.371-34.883,25.171,25.171,0,0,1,9.371-9.036,28.32,28.32,0,0,1,26.69,0,25.3,25.3,0,0,1,9.319,9.036,25.1,25.1,0,0,1-9.368,34.883A26.88,26.88,0,0,1,877.711,606.624Zm0-12.709a10.619,10.619,0,0,0,6.023-1.692,11.5,11.5,0,0,0,3.954-4.521,14.12,14.12,0,0,0,1.413-6.4,13.91,13.91,0,0,0-1.413-6.308,11.491,11.491,0,0,0-3.954-4.518,10.6,10.6,0,0,0-6.023-1.7,10.819,10.819,0,0,0-6.072,1.7,11.348,11.348,0,0,0-4,4.518,13.906,13.906,0,0,0-1.41,6.308,14.116,14.116,0,0,0,1.41,6.4,11.359,11.359,0,0,0,4,4.521A10.844,10.844,0,0,0,877.711,593.915Z" transform="translate(295.68 46.396)" fill="#00b5e2"/>
    <g id="Grupo_3477" data-name="Grupo 3477" transform="translate(806.856 587.134)">
      <path id="Trazado_2350" data-name="Trazado 2350" d="M791.809,585.385a21.689,21.689,0,0,0,3.013-11.345,22.016,22.016,0,0,0-3.249-11.958,22.664,22.664,0,0,0-8.755-8.1,25.651,25.651,0,0,0-12.191-2.918H740.5v65.9h15.817V597.1h11.955L779.582,617h18.873L783.9,593.527A24.213,24.213,0,0,0,791.809,585.385Zm-14.168-5.931a9.04,9.04,0,0,1-3.718,3.387,11.176,11.176,0,0,1-5.085,1.177H756.319V564.247h12.519a10.969,10.969,0,0,1,5.04,1.177,9.465,9.465,0,0,1,3.718,3.39,9.693,9.693,0,0,1,1.41,5.318A9.934,9.934,0,0,1,777.641,579.454Z" transform="translate(-740.502 -551.069)" fill="#fff"/>
      <path id="Trazado_2351" data-name="Trazado 2351" d="M798.906,559.412a28.32,28.32,0,0,0-26.69,0,25.161,25.161,0,0,0-9.367,9.036,25.1,25.1,0,0,0,9.367,34.883,28.6,28.6,0,0,0,26.644,0,25.48,25.48,0,0,0,9.368-34.883A25.31,25.31,0,0,0,798.906,559.412Zm-3.341,28.29a11.5,11.5,0,0,1-3.954,4.521,10.63,10.63,0,0,1-6.026,1.692,10.846,10.846,0,0,1-6.073-1.692,11.377,11.377,0,0,1-4-4.521,14.117,14.117,0,0,1-1.413-6.4,13.907,13.907,0,0,1,1.413-6.308,11.366,11.366,0,0,1,4-4.518,10.821,10.821,0,0,1,6.073-1.7,10.606,10.606,0,0,1,6.026,1.7,11.492,11.492,0,0,1,3.954,4.518,13.906,13.906,0,0,1,1.41,6.308A14.116,14.116,0,0,1,795.564,587.7Z" transform="translate(-701.447 -540.738)" fill="#fff"/>
      <path id="Trazado_2352" data-name="Trazado 2352" d="M891.191,566.285a19.855,19.855,0,0,0-8-7.485,28.781,28.781,0,0,0-18.971-1.928,24.537,24.537,0,0,0-5.554,2.164,19.1,19.1,0,0,0-4.377,3.249H854.1a17.328,17.328,0,0,0-4.285-3.249,24.65,24.65,0,0,0-5.505-2.164,25.655,25.655,0,0,0-6.591-.8,26.135,26.135,0,0,0-12.335,2.728,20.883,20.883,0,0,0-4.767,3.427,25.937,25.937,0,0,0-17.359-6.155,26.736,26.736,0,0,0-13.368,3.341,25.161,25.161,0,0,0-9.368,9.036,25.1,25.1,0,0,0,9.368,34.883,28.595,28.595,0,0,0,26.641,0,24.585,24.585,0,0,0,12.8-21.935c0-.748-.037-1.474-.089-2.2v-1.756a8.321,8.321,0,0,1,1.128-4.285A8.932,8.932,0,0,1,833.53,570a9.132,9.132,0,0,1,9.132,0,9.354,9.354,0,0,1,3.2,3.154,8.073,8.073,0,0,1,1.177,4.285v7.36h14.594v-7.36a8.35,8.35,0,0,1,1.128-4.285A8.955,8.955,0,0,1,865.915,570a8.654,8.654,0,0,1,4.567-1.223A8.408,8.408,0,0,1,875,570a9.487,9.487,0,0,1,3.154,3.154,8.073,8.073,0,0,1,1.177,4.285V605.5h14.686V576.97A20.5,20.5,0,0,0,891.191,566.285ZM813.237,587.7a11.5,11.5,0,0,1-3.954,4.521,10.613,10.613,0,0,1-6.023,1.692,10.845,10.845,0,0,1-6.072-1.692,11.353,11.353,0,0,1-4-4.521,14.079,14.079,0,0,1-1.413-6.4,13.869,13.869,0,0,1,1.413-6.308,11.343,11.343,0,0,1,4-4.518,10.821,10.821,0,0,1,6.072-1.7,10.589,10.589,0,0,1,6.023,1.7,11.49,11.49,0,0,1,3.954,4.518,13.866,13.866,0,0,1,1.413,6.308A14.076,14.076,0,0,1,813.237,587.7Z" transform="translate(-664.941 -540.738)" fill="#fff"/>
      <rect id="Rectángulo_1950" data-name="Rectángulo 1950" width="14.592" height="11.966" transform="translate(182.099 52.792)" fill="#fff"/>
    </g>
    <path id="Trazado_2353" data-name="Trazado 2353" d="M771.651,570.815l-27.288-25.464a4.776,4.776,0,0,0-6.477-.037l-27.953,25.494a4.785,4.785,0,0,0-1.56,3.531v55.145a4.776,4.776,0,0,0,4.779,4.776h55.24a4.774,4.774,0,0,0,4.776-4.776V574.306A4.774,4.774,0,0,0,771.651,570.815Zm-46.489,58.762a12.864,12.864,0,1,1,12.862-12.865A12.865,12.865,0,0,1,725.163,629.577Zm0-31.22a12.864,12.864,0,1,1,12.862-12.865A12.865,12.865,0,0,1,725.163,598.357Zm31.22,31.22a12.864,12.864,0,1,1,12.865-12.865A12.865,12.865,0,0,1,756.383,629.577Z" transform="translate(0 21.604)" fill="#00b5e2"/>
    <circle id="Elipse_4" data-name="Elipse 4" cx="12.864" cy="12.864" r="12.864" transform="translate(743.518 533.607)" fill="#00b5e2"/>
  </g>
</svg>
