<svg xmlns="http://www.w3.org/2000/svg" width="20" height="20" viewBox="0 0 20 20">
  <g id="Grupo_3930" data-name="Grupo 3930" transform="translate(-1299 -404)">
    <circle id="Elipse_26" data-name="Elipse 26" cx="10" cy="10" r="10" transform="translate(1299 404)" fill="#00b5e2"/>
    <g id="_126473" data-name="126473" transform="translate(1297.211 407.402)">
      <path id="Trazado_2449" data-name="Trazado 2449" d="M17.421,7.748a1.416,1.416,0,0,0,.331-.946,1.454,1.454,0,0,0-.31-.82,1.274,1.274,0,0,0-.3-1.466,2.632,2.632,0,0,0-1.914-.458,7.479,7.479,0,0,0-1.173.15h0c-.119.021-.245.048-.374.076a4.158,4.158,0,0,1,.3-1.385A2.548,2.548,0,0,0,13.913.589,1.515,1.515,0,0,0,12.7,0a.6.6,0,0,0-.46.21,1.6,1.6,0,0,0-.2,1.137A10.55,10.55,0,0,1,10.1,4.833a.255.255,0,0,0-.038.033,2.56,2.56,0,0,0-.467.7.983.983,0,0,0-.472-.119H7.666a.992.992,0,0,0-.991.991v3.873a.992.992,0,0,0,.991.991H9.12a.989.989,0,0,0,.572-.181l.56.067a24,24,0,0,0,3.177.174c.284.021.551.033.8.033a5.347,5.347,0,0,0,1.108-.1,2.072,2.072,0,0,0,1.48-.92,1.459,1.459,0,0,0,.162-.913,1.52,1.52,0,0,0,.541-1.237A1.61,1.61,0,0,0,17.421,7.748ZM7.666,10.66a.348.348,0,0,1-.348-.348V6.437a.348.348,0,0,1,.348-.348H9.12a.348.348,0,0,1,.348.348V10.31a.348.348,0,0,1-.348.348H7.666Zm9.145-3.191a.32.32,0,0,0-.043.388.992.992,0,0,1,.11.4.954.954,0,0,1-.448.825.325.325,0,0,0-.11.367.842.842,0,0,1-.064.615,1.491,1.491,0,0,1-1.053.605,6.279,6.279,0,0,1-1.737.052h-.033a23.525,23.525,0,0,1-3.1-.169h0l-.241-.029a1.01,1.01,0,0,0,.021-.21V6.437a1.008,1.008,0,0,0-.045-.3,1.992,1.992,0,0,1,.443-.817c1.07-.848,2.116-3.711,2.162-3.835a.3.3,0,0,0,.014-.16,1.489,1.489,0,0,1,.031-.691.855.855,0,0,1,.672.322,2.03,2.03,0,0,1-.029,1.733c-.4,1.213-.434,1.852-.117,2.133a.519.519,0,0,0,.52.093c.145-.033.284-.062.415-.083l.031-.007c.732-.16,2.042-.257,2.5.157a.686.686,0,0,1,.081.87.319.319,0,0,0,.057.415.9.9,0,0,1,.265.555A.885.885,0,0,1,16.811,7.469Z" transform="translate(0 0)" fill="#fff" stroke="#fff" stroke-width="0.5"/>
    </g>
  </g>
</svg>
