<svg xmlns="http://www.w3.org/2000/svg" width="8.782" height="10.844" viewBox="0 0 8.782 10.844">
  <g id="surface1" transform="translate(91.5 8.001)">
    <path id="Trazado_2436" data-name="Trazado 2436" d="M8.949,4.629a1.071,1.071,0,0,0-1.006-.186.926.926,0,0,0-.246.129,6.755,6.755,0,0,0-.941.97V2.357a1.025,1.025,0,0,0-.305-.726A.985.985,0,0,0,5.4,1.412V1.1a1.115,1.115,0,0,0-.332-.79A1.068,1.068,0,0,0,4.29,0,1.092,1.092,0,0,0,3.224,1.053a1.047,1.047,0,0,0-.4-.093,1.106,1.106,0,0,0-.8.312,1.044,1.044,0,0,0-.324.752v.3a.914.914,0,0,0-1.2.868V7.846A4.1,4.1,0,0,0,.879,9.392a2.406,2.406,0,0,0,.812.939,3.837,3.837,0,0,0,2.159.512,3.4,3.4,0,0,0,3-1.659c.07-.113.254-.4.453-.715s.374-.585.533-.833l.236-.368c.257-.4.531-.792.814-1.159.105-.136.137-.173.145-.181a.94.94,0,0,0,.242-.512A.858.858,0,0,0,8.949,4.629Zm-.3.7a.308.308,0,0,1-.08.167c-.023.025-.064.073-.179.222-.295.382-.58.787-.847,1.2L7.3,7.294c-.159.248-.34.529-.534.835s-.392.616-.461.728L6.3,8.868A2.767,2.767,0,0,1,3.85,10.207a3.269,3.269,0,0,1-1.8-.4,2.432,2.432,0,0,1-.91-1.991V3.194a.279.279,0,0,1,.557,0V4.927c0,.005,0,.01,0,.015s0,.011,0,.017,0,.01,0,.015,0,.011,0,.017l0,.015c0,.005,0,.011,0,.016l.005.015.005.015.007.014.007.014.008.013.008.013.009.012.009.012.01.011.01.011.011.01.012.011.012.009.013.009.012.008.014.008.013.006.015.007.014.005.015.006.015,0,.015,0,.016,0,.016,0h.033l.033,0,.014,0,.018,0,.018,0,.012,0,.02-.007.01,0,.019-.009.009,0L2.18,5.2l.009-.006L2.2,5.18l.01-.007.013-.012.01-.009.011-.012.009-.01.009-.013.009-.012.008-.013.008-.013L2.3,5.065,2.3,5.051l.005-.014.006-.015,0-.015,0-.016s0-.01,0-.015,0-.011,0-.016,0-.01,0-.016,0-.011,0-.016l.007-2.9a.414.414,0,0,1,.131-.3A.465.465,0,0,1,2.8,1.6a.441.441,0,0,1,.416.446l0,2.868c0,.006,0,.011,0,.017s0,.01,0,.015,0,.012,0,.017,0,.01,0,.014,0,.012,0,.019l0,.012c0,.007,0,.013.007.02l0,.01.01.02,0,.008.012.02,0,.006.014.019,0,.006.017.019,0,0,.019.017,0,0,.02.015,0,0,.022.013,0,0,.023.011,0,0,.025.009,0,0,.025.007h.005a.32.32,0,0,0,.064.006h.033l.017,0,.015,0,.017,0,.014,0,.017-.006.012,0,.017-.008.011-.005.016-.01.01-.006.015-.011.01-.007.013-.012.009-.009.012-.013.009-.01L3.8,5.1,3.8,5.088l.008-.014.008-.013.007-.014.007-.014.005-.014L3.845,5l0-.015c0-.005,0-.01,0-.015s0-.011,0-.016,0-.011,0-.016,0-.011,0-.016,0-.011,0-.016V1.086A.453.453,0,0,1,4.3.636a.439.439,0,0,1,.316.129A.475.475,0,0,1,4.76,1.1V4.927c0,.006,0,.011,0,.017s0,.01,0,.015,0,.011,0,.017,0,.01,0,.015,0,.011,0,.016,0,.009,0,.014l.006.017,0,.012.008.017,0,.01.01.017.006.009.012.016.006.008.015.016.006.006.016.015.006.006.02.015,0,0,.022.013,0,0,.025.012h0l.028.01h0a.316.316,0,0,0,.062.013h0l.033,0h.033l.017,0,.014,0,.018,0,.012,0,.019-.007.01,0,.019-.009.009,0L5.248,5.2l.009-.005.017-.013.007-.005L5.3,5.158,5.3,5.152l.015-.016.006-.006.013-.017L5.342,5.1l.011-.018.005-.008.009-.019,0-.009.007-.019,0-.01c0-.006,0-.012,0-.019l0-.012c0-.006,0-.012,0-.019s0-.009,0-.013,0-.012,0-.018,0-.01,0-.015V2.3a.365.365,0,0,1,.354-.321.353.353,0,0,1,.254.1.384.384,0,0,1,.115.272V6.126a.452.452,0,0,0,.842.224l0,0a6.137,6.137,0,0,1,1.11-1.262.288.288,0,0,1,.077-.04.428.428,0,0,1,.4.077A.235.235,0,0,1,8.644,5.333Zm0,0" transform="translate(-92 -8)" fill="#00b5e2"/>
  </g>
</svg>
