<svg id="_3022251" data-name="3022251" xmlns="http://www.w3.org/2000/svg" width="23.872" height="23.872" viewBox="0 0 23.872 23.872">
  <path id="Trazado_2458" data-name="Trazado 2458" d="M20.375,6.015h-.653V3.5a3.5,3.5,0,0,0-3.5-3.5H7.646a3.5,3.5,0,0,0-3.5,3.5V6.015H3.5A3.5,3.5,0,0,0,0,9.511v5.595a3.5,3.5,0,0,0,3.5,3.5H4.15v3.17a2.1,2.1,0,0,0,2.1,2.1H17.624a2.1,2.1,0,0,0,2.1-2.1V18.6h.653a3.5,3.5,0,0,0,3.5-3.5V9.511A3.5,3.5,0,0,0,20.375,6.015ZM5.548,3.5a2.1,2.1,0,0,1,2.1-2.1h8.579a2.1,2.1,0,0,1,2.1,2.1V6.015H5.548ZM18.323,21.774a.7.7,0,0,1-.7.7H6.248a.7.7,0,0,1-.7-.7v-6.9H18.323Zm4.15-6.667a2.1,2.1,0,0,1-2.1,2.1h-.653V14.873h.42a.7.7,0,1,0,0-1.4H3.73a.7.7,0,1,0,0,1.4h.42V17.2H3.5a2.1,2.1,0,0,1-2.1-2.1V9.511a2.1,2.1,0,0,1,2.1-2.1H20.375a2.1,2.1,0,0,1,2.1,2.1Z" fill="#00b5e2"/>
  <path id="Trazado_2459" data-name="Trazado 2459" d="M205.429,353H201.7a.7.7,0,0,0,0,1.4h3.73a.7.7,0,0,0,0-1.4Z" transform="translate(-191.628 -336.542)" fill="#00b5e2"/>
  <path id="Trazado_2460" data-name="Trazado 2460" d="M205.429,417H201.7a.7.7,0,0,0,0,1.4h3.73a.7.7,0,0,0,0-1.4Z" transform="translate(-191.628 -397.558)" fill="#00b5e2"/>
  <path id="Trazado_2461" data-name="Trazado 2461" d="M67.937,193H65.7a.7.7,0,1,0,0,1.4h2.238a.7.7,0,0,0,0-1.4Z" transform="translate(-61.969 -184.002)" fill="#00b5e2"/>
</svg>
