<?xml version="1.0" encoding="UTF-8" standalone="no"?>
<svg
   xmlns:dc="http://purl.org/dc/elements/1.1/"
   xmlns:cc="http://creativecommons.org/ns#"
   xmlns:rdf="http://www.w3.org/1999/02/22-rdf-syntax-ns#"
   xmlns:svg="http://www.w3.org/2000/svg"
   xmlns="http://www.w3.org/2000/svg"
   xmlns:sodipodi="http://sodipodi.sourceforge.net/DTD/sodipodi-0.dtd"
   xmlns:inkscape="http://www.inkscape.org/namespaces/inkscape"
   width="27.688"
   height="29.514"
   viewBox="0 0 27.688 29.514"
   version="1.1"
   id="svg6"
   sodipodi:docname="restricciones.svg"
   inkscape:version="0.92.5 (2060ec1f9f, 2020-04-08)">
  <metadata
     id="metadata12">
    <rdf:RDF>
      <cc:Work
         rdf:about="">
        <dc:format>image/svg+xml</dc:format>
        <dc:type
           rdf:resource="http://purl.org/dc/dcmitype/StillImage" />
        <dc:title></dc:title>
      </cc:Work>
    </rdf:RDF>
  </metadata>
  <defs
     id="defs10" />
  <sodipodi:namedview
     pagecolor="#ffffff"
     bordercolor="#666666"
     borderopacity="1"
     objecttolerance="10"
     gridtolerance="10"
     guidetolerance="10"
     inkscape:pageopacity="0"
     inkscape:pageshadow="2"
     inkscape:window-width="3440"
     inkscape:window-height="1403"
     id="namedview8"
     showgrid="false"
     inkscape:zoom="15.99241"
     inkscape:cx="46.352512"
     inkscape:cy="19.873788"
     inkscape:window-x="0"
     inkscape:window-y="0"
     inkscape:window-maximized="1"
     inkscape:current-layer="svg6" />
  <path
     style="fill:#e26300;stroke-width:0.05954862;fill-opacity:1"
     d="M 12.566096,28.816695 C 7.668414,28.314537 3.549881,25.491664 1.405552,21.167175 0.47103295,19.282523 0.05789095,17.64188 -0.01032205,15.544545 c -0.05268,-1.61971 0.118181,-2.985787 0.552771,-4.419539 C 1.513396,7.9217623 3.712754,5.071079 6.55638,3.33009 8.3568749,2.22775 10.071806,1.619942 12.17903,1.337302 c 0.842599,-0.113017 2.680424,-0.09723 3.543143,0.03044 4.76997,0.705883 8.848639,3.837904 10.8018,8.2947324 1.245217,2.8414026 1.452854,6.1861916 0.573649,9.2407886 -0.480427,1.669134 -1.375529,3.374806 -2.534274,4.829214 -0.538885,0.676386 -1.741427,1.840716 -2.440012,2.362479 -1.820959,1.360049 -3.9418,2.262533 -6.134329,2.61035 -0.599321,0.09508 -2.863409,0.16875 -3.422911,0.111385 z m 3.441191,-2.935993 c 1.547753,-0.337076 2.922933,-0.939383 4.224294,-1.850172 0.688168,-0.481631 1.988677,-1.767711 2.472112,-2.444683 0.731447,-1.024274 1.358257,-2.316946 1.702217,-3.510485 0.506297,-1.756848 0.522019,-3.989168 0.04101,-5.822562 C 23.768561,9.6672164 22.053234,7.268822 19.849884,5.825169 15.589103,3.033468 9.9548349,3.541815 6.203485,7.056402 5.04885,8.1381632 3.928915,9.9017854 3.385224,11.494466 c -0.672339,1.969543 -0.75665,4.390855 -0.224242,6.43998 0.409556,1.576295 1.264176,3.16453 2.406854,4.472925 1.4779,1.692229 3.7289729,2.986849 5.975051,3.436324 1.012395,0.202595 0.987317,0.200785 2.511925,0.181378 1.12967,-0.01438 1.471731,-0.03967 1.952475,-0.144371 z m -2.796626,-2.587761 c -0.359212,-0.117335 -0.619102,-0.292963 -0.937973,-0.633862 -0.425219,-0.454593 -0.540518,-0.753583 -0.539057,-1.397866 0.0011,-0.494317 0.01684,-0.564925 0.202412,-0.909209 0.240431,-0.446061 0.55622,-0.745764 1.009973,-0.958524 0.288013,-0.135046 0.413521,-0.156914 0.900376,-0.156876 0.456033,3.6e-5 0.620372,0.02529 0.847648,0.13023 0.36036,0.166396 0.813337,0.619485 1.000906,1.00115 0.12729,0.25901 0.146286,0.379079 0.146028,0.923003 -2.38e-4,0.54075 -0.01911,0.66061 -0.139509,0.886801 -0.200919,0.377465 -0.645114,0.82823 -0.990439,1.005089 -0.36309,0.185957 -1.102065,0.240167 -1.500365,0.110064 z m -0.008,-6.112335 C 13.094248,17.114506 12.966103,16.966027 12.917894,16.85065 12.779933,16.520461 11.68884,8.8112526 11.734325,8.488034 11.790835,8.0864667 11.959605,7.7523971 12.27785,7.412167 12.897856,6.74933 13.852729,6.545927 14.689712,6.8984 c 0.308275,0.129822 0.814259,0.6216664 0.985506,0.957966 0.269205,0.5286739 0.255101,0.7677241 -0.276175,4.680974 -0.264567,1.948729 -0.511982,3.663729 -0.549812,3.811112 -0.09784,0.381172 -0.259787,0.683546 -0.443496,0.828051 -0.222971,0.17539 -0.91824,0.177761 -1.203074,0.0041 z"
     id="path833"
     inkscape:connector-curvature="0" />
</svg>
