<svg xmlns="http://www.w3.org/2000/svg" width="9.532" height="12.008" viewBox="0 0 9.532 12.008">
  <g id="_167123" data-name="167123" transform="translate(-47.75 0.1)">
    <g id="Grupo_3876" data-name="Grupo 3876" transform="translate(47.85)">
      <g id="Grupo_3875" data-name="Grupo 3875" transform="translate(0)">
        <path id="Trazado_2437" data-name="Trazado 2437" d="M55,220.526a3.572,3.572,0,0,1-.545.554,3.912,3.912,0,0,1,1.97,3.394c0,.784-1.717,1.4-3.909,1.4s-3.909-.614-3.909-1.4a3.912,3.912,0,0,1,1.97-3.394,3.573,3.573,0,0,1-.545-.554,4.667,4.667,0,0,0-2.182,3.948c0,.5.275,1.2,1.588,1.687a10.375,10.375,0,0,0,6.157,0c1.312-.483,1.588-1.184,1.588-1.687A4.667,4.667,0,0,0,55,220.526Z" transform="translate(-47.85 -214.82)" fill="#00b5e2" stroke="#00b5e2" stroke-width="0.2"/>
        <path id="Trazado_2438" data-name="Trazado 2438" d="M130.188,6.2a2.884,2.884,0,0,0,2.6-3.1,2.643,2.643,0,1,0-5.206,0A2.884,2.884,0,0,0,130.188,6.2Zm0-5.448A2.144,2.144,0,0,1,132.034,3.1a1.9,1.9,0,1,1-3.693,0A2.144,2.144,0,0,1,130.188.757Z" transform="translate(-125.522)" fill="#00b5e2" stroke="#00b5e2" stroke-width="0.2"/>
      </g>
    </g>
  </g>
</svg>
